<svg width="265" height="232" viewBox="0 0 265 232" fill="none" xmlns="http://www.w3.org/2000/svg">
<g filter="url(#filter0_d_2_564)">
<path d="M35.6623 197.935C20.3848 197.935 8 185.572 8 170.321L8 35.6148C8 20.3636 20.3848 8 35.6623 8L225.338 8C240.615 8 253 20.3636 253 35.6148L253 170.32C253 185.572 240.615 197.935 225.338 197.935H150.294C147.21 197.935 144.33 199.475 142.62 202.037L131.456 218.769C130.305 220.494 127.731 220.386 126.73 218.57L117.985 202.703C116.364 199.762 113.268 197.935 109.906 197.935L35.6623 197.935Z" stroke="url(#paint0_linear_2_564)" stroke-width="2" shape-rendering="crispEdges"/>
</g>
<defs>
<filter id="filter0_d_2_564" x="0" y="0" width="265" height="232" filterUnits="userSpaceOnUse" color-interpolation-filters="sRGB">
<feFlood flood-opacity="0" result="BackgroundImageFix"/>
<feColorMatrix in="SourceAlpha" type="matrix" values="0 0 0 0 0 0 0 0 0 0 0 0 0 0 0 0 0 0 127 0" result="hardAlpha"/>
<feOffset dx="2" dy="2"/>
<feGaussianBlur stdDeviation="4.5"/>
<feComposite in2="hardAlpha" operator="out"/>
<feColorMatrix type="matrix" values="0 0 0 0 0 0 0 0 0 0.616667 0 0 0 0 0.172667 0 0 0 1 0"/>
<feBlend mode="normal" in2="BackgroundImageFix" result="effect1_dropShadow_2_564"/>
<feBlend mode="normal" in="SourceGraphic" in2="effect1_dropShadow_2_564" result="shape"/>
</filter>
<linearGradient id="paint0_linear_2_564" x1="8.00001" y1="161.303" x2="213.269" y2="17.1096" gradientUnits="userSpaceOnUse">
<stop stop-color="#B2FF0F"/>
<stop offset="1" stop-color="#76FFEF"/>
</linearGradient>
</defs>
</svg>
