<svg width="265" height="202" viewBox="0 0 265 202" fill="none" xmlns="http://www.w3.org/2000/svg">
<g filter="url(#filter0_d_2_568)">
<path d="M35.6623 30.0647C20.3848 30.0647 8 42.4283 8 57.6795L8 162.385C8 177.636 20.3848 190 35.6623 190L225.338 190C240.615 190 253 177.636 253 162.385L253 57.6795C253 42.4283 240.615 30.0647 225.338 30.0647L150.294 30.0647C147.21 30.0647 144.33 28.5252 142.62 25.9626L131.456 9.23068C130.305 7.5055 127.731 7.61422 126.73 9.43029L117.985 25.2973C116.364 28.2379 113.268 30.0647 109.906 30.0647L35.6623 30.0647Z" stroke="url(#paint0_linear_2_568)" stroke-width="2" shape-rendering="crispEdges"/>
</g>
<defs>
<filter id="filter0_d_2_568" x="0" y="0" width="265" height="202" filterUnits="userSpaceOnUse" color-interpolation-filters="sRGB">
<feFlood flood-opacity="0" result="BackgroundImageFix"/>
<feColorMatrix in="SourceAlpha" type="matrix" values="0 0 0 0 0 0 0 0 0 0 0 0 0 0 0 0 0 0 127 0" result="hardAlpha"/>
<feOffset dx="2" dy="2"/>
<feGaussianBlur stdDeviation="4.5"/>
<feComposite in2="hardAlpha" operator="out"/>
<feColorMatrix type="matrix" values="0 0 0 0 0 0 0 0 0 0.616667 0 0 0 0 0.172667 0 0 0 1 0"/>
<feBlend mode="normal" in2="BackgroundImageFix" result="effect1_dropShadow_2_568"/>
<feBlend mode="normal" in="SourceGraphic" in2="effect1_dropShadow_2_568" result="shape"/>
</filter>
<linearGradient id="paint0_linear_2_568" x1="8.00001" y1="58.3909" x2="191.62" y2="208.638" gradientUnits="userSpaceOnUse">
<stop stop-color="#B2FF0F"/>
<stop offset="1" stop-color="#76FFEF"/>
</linearGradient>
</defs>
</svg>
