<svg aria-hidden="true" style="position: absolute; width: 0; height: 0; overflow: hidden;" version="1.1" xmlns="http://www.w3.org/2000/svg" xmlns:xlink="http://www.w3.org/1999/xlink">
<defs>
<symbol id="icon-main_feature4" viewBox="0 0 32 32">
<path fill="#fff" style="fill: var(--color1, #fff)" d="M8.903 12.345c0.797-3.709 3.783-6.43 7.479-6.815 0.22-0.023 0.507-0.045 0.637-0.048l0.237-0.007v1.691l-0.337 0.031c-1.898 0.173-3.335 0.836-4.555 2.102-0.934 0.969-1.501 2.042-1.792 3.388-0.125 0.578-0.123 2.089 0.004 2.669 0.3 1.375 0.905 2.49 1.879 3.461 0.837 0.834 1.772 1.398 2.86 1.725 0.516 0.155 1.216 0.272 1.629 0.272l0.312 0v1.725l-0.591-0.035c-1.462-0.087-2.856-0.566-4.157-1.426-0.776-0.513-1.777-1.51-2.291-2.28-0.639-0.959-1.066-1.974-1.316-3.13-0.098-0.456-0.114-0.673-0.115-1.649-0.002-0.998 0.011-1.186 0.116-1.674z"></path>
<path fill="#fff" style="fill: var(--color1, #fff)" d="M13.787 10.275c0.878-0.821 1.973-1.287 3.22-1.369 0.124-0.008 0.304-0.009 0.4-0.001 0.698 0.054 0.897 0.084 1.284 0.196 2.036 0.59 3.499 2.39 3.685 4.531l0.034 0.388-1.729-0.027-0.032-0.358c-0.069-0.769-0.384-1.413-0.99-2.018-0.694-0.694-1.423-0.997-2.4-0.997-2.301 0-3.927 2.225-3.23 4.422 0.41 1.292 1.564 2.233 2.889 2.356l0.34 0.032v1.699l-0.417-0.029c-1.16-0.082-2.326-0.625-3.184-1.482-2.048-2.047-1.988-5.361 0.132-7.344z"></path>
<path fill="#fff" style="fill: var(--color1, #fff)" d="M7.962 21.491c-1.618-2.053-2.456-4.284-2.626-6.986l-0.031-0.488 1.731 0.027 0.033 0.65c0.062 1.217 0.42 2.577 0.992 3.762 1.189 2.466 3.319 4.352 5.904 5.228 0.977 0.331 1.534 0.436 2.955 0.557l0.337 0.029v1.704l-0.562-0.034c-3.024-0.185-5.726-1.378-7.814-3.451-0.332-0.33-0.746-0.779-0.918-0.998z"></path>
<path fill="#fff" style="fill: var(--color1, #fff)" d="M20.006 15.205c-0.005-0.166 0.041-0.334 0.102-0.374 0.143-0.094 6.587-0.074 6.587 0.021 0 0.039-0.589 0.622-1.31 1.295l-1.31 1.224h-5.203l-0.052 2.378-0.699 0.009v-3.133h5.606l0.552-0.48c0.303-0.264 0.552-0.515 0.552-0.557s-0.178-0.072-0.396-0.066c-0.218 0.005-1.302 0.004-2.409-0.003l-2.013-0.013-0.009-0.301z"></path>
<path fill="#fff" style="fill: var(--color1, #fff)" d="M20.079 19.811v-1.602h0.745v0.857l1.683-0.037c0.926-0.020 1.701-0.008 1.723 0.027s-0.549 0.614-1.269 1.287l-1.309 1.223h-2.785v3.371l1.205-1.087 0.006-1.445h0.745v1.746l-1.188 1.109c-0.653 0.61-1.261 1.166-1.351 1.236-0.154 0.12-0.163-0.025-0.163-2.775v-2.902h3.183l0.553-0.481c0.304-0.264 0.528-0.506 0.497-0.536s-0.555-0.041-1.166-0.023l-1.11 0.032z"></path>
<path fill="#fff" style="fill: var(--color1, #fff)" d="M32 16c0 8.837-7.163 16-16 16s-16-7.163-16-16c0-8.837 7.163-16 16-16s16 7.163 16 16zM1.6 16c0 7.953 6.447 14.4 14.4 14.4s14.4-6.447 14.4-14.4c0-7.953-6.447-14.4-14.4-14.4s-14.4 6.447-14.4 14.4z"></path>
</symbol>
<symbol id="icon-main_feature3" viewBox="0 0 32 32">
<path fill="#fff" style="fill: var(--color1, #fff)" d="M15.305 0.101c-0.183 0.056-1.758 0.886-3.499 1.844-3.256 1.792-3.639 2.044-3.946 2.591l-0.144 0.256h-1.081l-0.508-0.521 0.122-0.356c0.196-0.571 0.163-1.151-0.096-1.677-0.644-1.309-2.296-1.625-3.369-0.643-0.423 0.387-0.645 0.847-0.692 1.439-0.122 1.519 1.375 2.659 2.841 2.162l0.424-0.144 0.84 0.807h1.278v2.667h-3.256l-0.163-0.356c-0.2-0.438-0.541-0.788-0.999-1.025-0.296-0.154-0.431-0.181-0.914-0.182-0.674-0.002-1.061 0.154-1.522 0.614-0.434 0.434-0.576 0.8-0.576 1.482s0.142 1.047 0.576 1.482c0.448 0.448 0.849 0.614 1.488 0.617 0.439 0.002 0.599-0.029 0.905-0.173 0.471-0.221 0.832-0.581 1.041-1.037l0.163-0.356h3.256v2.134h-1.278l-0.84 0.807-0.405-0.137c-0.696-0.235-1.373-0.14-1.928 0.268-0.348 0.256-0.681 0.726-0.681 0.961 0 0.241 0.276 0.502 0.532 0.502 0.16 0 0.28-0.079 0.554-0.361 0.524-0.541 1.046-0.587 1.583-0.137 0.307 0.257 0.579 0.298 0.746 0.114 0.058-0.064 0.278-0.304 0.488-0.534l0.382-0.417h0.83l0.030 0.41c0.024 0.325 0.061 0.436 0.182 0.533 0.214 0.174 0.51 0.157 0.707-0.040l0.164-0.164v-3.926c0-4.357-0.003-4.32 0.435-4.771 0.142-0.147 1.3-0.828 3.111-1.831 1.587-0.879 3.014-1.663 3.173-1.743 0.39-0.197 0.842-0.242 1.198-0.118 0.544 0.189 6.231 3.386 6.526 3.669 0.495 0.474 0.485 0.373 0.488 4.775 0.002 4.123-0.005 4.027 0.31 4.195 0.225 0.12 0.412 0.093 0.591-0.086 0.134-0.134 0.164-0.23 0.164-0.533v-0.37h0.846l0.377 0.395c0.207 0.217 0.377 0.423 0.377 0.456 0 0.076 0.298 0.216 0.46 0.216 0.066 0 0.252-0.105 0.413-0.233 0.561-0.446 1.049-0.403 1.573 0.139 0.407 0.42 0.648 0.471 0.922 0.197 0.214-0.214 0.206-0.409-0.030-0.783-0.48-0.758-1.501-1.095-2.396-0.791l-0.424 0.144-0.84-0.807h-1.278v-2.134h3.256l0.163 0.356c0.2 0.438 0.541 0.788 0.999 1.025 0.296 0.154 0.431 0.181 0.914 0.182 0.674 0.002 1.061-0.154 1.522-0.614 0.434-0.434 0.576-0.8 0.576-1.482s-0.142-1.047-0.576-1.482c-0.461-0.461-0.847-0.617-1.522-0.615-0.483 0.002-0.618 0.029-0.914 0.182-0.458 0.237-0.798 0.587-0.999 1.025l-0.163 0.356h-3.256v-2.667h1.278l0.84-0.807 0.424 0.144c1.033 0.35 2.148-0.126 2.638-1.128 0.155-0.316 0.184-0.462 0.184-0.91s-0.030-0.594-0.184-0.91c-0.216-0.441-0.664-0.878-1.103-1.077-0.436-0.198-1.254-0.198-1.69 0-1.033 0.468-1.548 1.626-1.191 2.68l0.144 0.427-0.251 0.257c-0.25 0.256-0.253 0.257-0.787 0.257l-0.536-0-0.179-0.283c-0.099-0.156-0.294-0.393-0.433-0.528-0.324-0.312-6.377-3.702-6.908-3.868-0.465-0.146-1.021-0.15-1.477-0.011zM4.697 2.215c0.685 0.286 0.852 1.185 0.319 1.717-0.432 0.433-1.050 0.433-1.482 0-0.824-0.825 0.085-2.168 1.163-1.717zM28.157 2.215c0.685 0.286 0.852 1.185 0.319 1.717-0.436 0.436-1.033 0.433-1.474-0.008-0.828-0.829 0.073-2.162 1.155-1.71zM9.771 7.090l-0.164 0.164v4.68l0.164 0.164c0.199 0.199 0.493 0.214 0.712 0.036 0.155-0.125 0.158-0.153 0.191-1.579l0.033-1.452 1.153 1.54c0.634 0.847 1.199 1.558 1.255 1.579 0.211 0.081 0.436 0.034 0.594-0.124l0.164-0.164v-4.68l-0.164-0.164c-0.199-0.199-0.493-0.214-0.712-0.036-0.155 0.125-0.158 0.153-0.191 1.579l-0.033 1.452-1.153-1.54c-0.634-0.847-1.199-1.558-1.255-1.579-0.211-0.081-0.436-0.034-0.594 0.125zM15.102 7.090l-0.164 0.164v4.68l0.164 0.164c0.103 0.103 0.24 0.164 0.37 0.164s0.266-0.060 0.37-0.164c0.158-0.158 0.164-0.197 0.164-1.067v-0.903h0.903c0.87 0 0.909-0.006 1.066-0.164 0.216-0.217 0.216-0.523 0-0.74-0.158-0.158-0.197-0.164-1.066-0.164h-0.903v-1.067h0.903c0.87 0 0.909-0.006 1.066-0.164 0.103-0.103 0.164-0.24 0.164-0.37s-0.060-0.267-0.164-0.37c-0.162-0.162-0.174-0.164-1.436-0.164s-1.274 0.001-1.436 0.164zM19.368 7.090c-0.103 0.103-0.164 0.24-0.164 0.37 0 0.34 0.252 0.533 0.697 0.533h0.37v3.941l0.164 0.164c0.103 0.103 0.24 0.164 0.37 0.164s0.266-0.060 0.37-0.164l0.164-0.164v-3.941h0.37c0.445 0 0.697-0.193 0.697-0.533 0-0.13-0.060-0.267-0.164-0.37-0.162-0.162-0.174-0.164-1.436-0.164s-1.274 0.001-1.436 0.164zM2.565 8.084c0.69 0.288 0.851 1.17 0.311 1.71-0.441 0.441-1.038 0.444-1.474 0.008-0.824-0.825 0.085-2.168 1.163-1.717zM30.289 8.084c0.69 0.288 0.851 1.17 0.311 1.71-0.441 0.441-1.038 0.444-1.474 0.008-0.824-0.825 0.085-2.168 1.163-1.717zM3.693 15.033c-1.771 0.388-3.207 1.843-3.583 3.63-0.147 0.7-0.147 9.896 0 10.52 0.311 1.32 1.446 2.443 2.748 2.719 1.031 0.219 2.29 0.063 3.073-0.38 0.5-0.283 1.191-0.993 1.458-1.497 0.167-0.316 0.46-0.64 1.309-1.45l1.093-1.043h12.429l1.091 1.041c0.851 0.812 1.138 1.131 1.307 1.45 0.122 0.231 0.42 0.614 0.683 0.877 0.757 0.758 1.623 1.098 2.799 1.097 1.229-0 2.1-0.343 2.851-1.121 0.732-0.758 1.045-1.576 1.047-2.731 0.001-0.57-0.012-0.633-0.163-0.784-0.216-0.217-0.523-0.217-0.739 0-0.149 0.149-0.164 0.216-0.164 0.76 0 1.348-0.632 2.295-1.784 2.674-0.777 0.255-1.924 0.152-2.58-0.232-0.401-0.235-0.881-0.77-1.065-1.186-0.128-0.29-0.388-0.572-1.496-1.624-0.967-0.918-1.399-1.284-1.548-1.314-0.268-0.054-12.638-0.054-12.906-0.001-0.144 0.029-0.593 0.41-1.548 1.315-1.111 1.053-1.372 1.335-1.5 1.624-0.183 0.415-0.664 0.95-1.065 1.185-0.93 0.546-2.481 0.484-3.314-0.131-0.426-0.314-0.755-0.778-0.916-1.29-0.129-0.408-0.134-0.606-0.134-5.204 0-5.181-0.002-5.15 0.37-5.919 0.382-0.789 1.117-1.452 2.004-1.807l0.458-0.184h24.126l0.5 0.185c0.991 0.367 1.777 1.144 2.182 2.157l0.183 0.459 0.034 3.524 0.034 3.524 0.157 0.127c0.219 0.177 0.514 0.162 0.712-0.036l0.164-0.164v-3.298c0-3.815-0.017-3.978-0.504-4.966-0.495-1.003-1.37-1.827-2.407-2.265-0.852-0.36-0.338-0.347-13.138-0.339-9.75 0.006-11.915 0.023-12.258 0.098zM24.003 16.616c-0.327 0.103-0.885 0.681-0.985 1.021-0.185 0.625-0.054 1.124 0.417 1.595 0.682 0.683 1.623 0.668 2.255-0.035 0.62-0.69 0.6-1.519-0.051-2.17-0.469-0.469-1.015-0.606-1.635-0.411zM4.972 17.226c-0.158 0.158-0.164 0.197-0.164 1.067v0.903h-0.903c-0.87 0-0.909 0.006-1.066 0.164-0.162 0.162-0.164 0.174-0.164 1.437s0.001 1.274 0.164 1.437c0.158 0.158 0.197 0.164 1.066 0.164h0.903v0.903c0 0.87 0.006 0.909 0.164 1.067 0.162 0.162 0.174 0.164 1.436 0.164s1.274-0.001 1.436-0.164c0.158-0.158 0.164-0.197 0.164-1.067v-0.903h0.903c0.87 0 0.909-0.006 1.066-0.164 0.162-0.162 0.164-0.174 0.164-1.437s-0.001-1.274-0.164-1.437c-0.158-0.158-0.197-0.164-1.066-0.164h-0.903v-0.903c0-0.87-0.006-0.909-0.164-1.067-0.162-0.162-0.174-0.164-1.436-0.164s-1.274 0.001-1.436 0.164zM12.437 17.226c-0.103 0.103-0.164 0.24-0.164 0.37s0.060 0.267 0.164 0.37c0.162 0.162 0.174 0.164 1.436 0.164s1.274-0.001 1.436-0.164c0.103-0.103 0.164-0.24 0.164-0.37s-0.060-0.267-0.164-0.37c-0.162-0.162-0.174-0.164-1.436-0.164s-1.274 0.001-1.436 0.164zM16.702 17.226c-0.103 0.103-0.164 0.24-0.164 0.37s0.060 0.267 0.164 0.37c0.162 0.162 0.174 0.164 1.436 0.164s1.274-0.001 1.436-0.164c0.103-0.103 0.164-0.24 0.164-0.37s-0.060-0.267-0.164-0.37c-0.162-0.162-0.174-0.164-1.436-0.164s-1.274 0.001-1.436 0.164zM24.905 17.759c0.103 0.103 0.164 0.24 0.164 0.37s-0.060 0.267-0.164 0.37c-0.103 0.103-0.24 0.164-0.37 0.164s-0.266-0.060-0.37-0.164c-0.103-0.103-0.164-0.24-0.164-0.37s0.060-0.267 0.164-0.37c0.103-0.103 0.24-0.164 0.37-0.164s0.266 0.060 0.37 0.164zM6.941 19.032c0 0.87 0.006 0.909 0.164 1.067s0.197 0.164 1.066 0.164h0.903v1.067h-0.903c-0.87 0-0.909 0.006-1.066 0.164s-0.164 0.197-0.164 1.067v0.903h-1.066v-0.903c0-0.87-0.006-0.909-0.164-1.067s-0.197-0.164-1.066-0.164h-0.903v-1.067h0.903c0.87 0 0.909-0.006 1.066-0.164s0.164-0.197 0.164-1.067v-0.903h1.066v0.903zM27.202 19.283c-0.327 0.103-0.885 0.681-0.985 1.021-0.185 0.625-0.054 1.124 0.417 1.595 0.682 0.683 1.623 0.668 2.255-0.035 0.62-0.69 0.6-1.519-0.051-2.17-0.469-0.469-1.015-0.606-1.635-0.411zM28.104 20.427c0.103 0.103 0.164 0.24 0.164 0.37s-0.060 0.267-0.164 0.37c-0.103 0.103-0.24 0.164-0.37 0.164s-0.266-0.061-0.37-0.164c-0.103-0.103-0.164-0.24-0.164-0.37s0.060-0.267 0.164-0.37c0.103-0.103 0.24-0.164 0.37-0.164s0.266 0.060 0.37 0.164zM22.403 20.884c-0.327 0.103-0.885 0.681-0.985 1.021-0.185 0.625-0.054 1.124 0.417 1.595 0.345 0.345 0.683 0.498 1.102 0.498 0.826 0 1.599-0.774 1.599-1.6 0-0.419-0.152-0.757-0.498-1.103-0.469-0.469-1.015-0.606-1.635-0.411zM12.437 21.494c-0.162 0.162-0.164 0.174-0.164 1.437 0 1.714-0.114 1.6 1.599 1.6s1.599 0.114 1.599-1.6 0.114-1.6-1.599-1.6c-1.262 0-1.274 0.001-1.436 0.164zM16.702 21.494c-0.162 0.162-0.164 0.174-0.164 1.437 0 1.714-0.114 1.6 1.599 1.6 1.262 0 1.274-0.001 1.436-0.164s0.164-0.174 0.164-1.437c0-1.714 0.114-1.6-1.599-1.6-1.262 0-1.274 0.001-1.436 0.164zM23.306 22.027c0.103 0.103 0.164 0.24 0.164 0.37s-0.060 0.267-0.164 0.37c-0.103 0.103-0.24 0.164-0.37 0.164s-0.266-0.060-0.37-0.164c-0.103-0.103-0.164-0.24-0.164-0.37s0.060-0.267 0.164-0.37c0.103-0.103 0.24-0.164 0.37-0.164s0.266 0.060 0.37 0.164zM14.406 22.93v0.533h-1.066v-1.067h1.066v0.534zM18.671 22.93v0.533h-1.066v-1.067h1.066v0.534zM25.602 23.551c-0.327 0.103-0.885 0.681-0.985 1.021-0.185 0.625-0.054 1.124 0.417 1.595 0.345 0.345 0.683 0.498 1.102 0.498 0.826 0 1.599-0.774 1.599-1.6 0-0.419-0.152-0.757-0.498-1.103-0.469-0.469-1.015-0.606-1.635-0.411zM26.505 24.695c0.103 0.103 0.164 0.24 0.164 0.37s-0.060 0.267-0.164 0.37c-0.103 0.103-0.24 0.164-0.37 0.164s-0.266-0.060-0.37-0.164c-0.103-0.103-0.164-0.24-0.164-0.37s0.060-0.267 0.164-0.37c0.103-0.103 0.24-0.164 0.37-0.164s0.266 0.060 0.37 0.164z"></path>
</symbol>
<symbol id="icon-main_feature2" viewBox="0 0 32 32">
<path fill="#fff" style="fill: var(--color1, #fff)" d="M17.327 2.777c-2.889 0.531-5.212 2.823-5.802 5.724-0.146 0.719-0.156 2.21-0.018 2.875 0.055 0.263 0.089 0.479 0.077 0.479s-0.185-0.105-0.384-0.232c-0.199-0.128-0.634-0.322-0.966-0.432-0.511-0.168-0.746-0.2-1.512-0.203-1.366-0.005-2.41 0.224-4.318 0.947-1.096 0.415-1.883 0.574-3.204 0.644-0.806 0.043-0.882 0.061-1.039 0.24-0.212 0.241-0.213 0.339-0.005 0.606l0.165 0.212 1.101-0.042c1.262-0.048 1.996-0.185 3.023-0.565 2.236-0.828 2.882-0.978 4.201-0.982 0.757-0.002 0.991 0.027 1.415 0.175 0.696 0.244 1.282 0.703 1.69 1.325 0.185 0.281 0.389 0.532 0.455 0.558s0.894 0.046 1.84 0.046c1.771 0 2.042 0.036 2.433 0.326 0.258 0.192 0.511 0.654 0.537 0.983l0.021 0.261-4.967 0.040-1.364-0.548c-1.486-0.597-1.658-0.616-1.853-0.205-0.101 0.214-0.015 0.549 0.162 0.626 0.046 0.020 0.678 0.281 1.404 0.579l1.319 0.542h11.3l0.114 0.165c0.121 0.174 0.063 0.395-0.122 0.467-0.053 0.021-2.116 0.36-4.584 0.753l-4.488 0.716-7.762-1.571-2.819 0.773c-1.55 0.425-2.91 0.808-3.020 0.852s-0.243 0.182-0.295 0.308c-0.081 0.199-0.074 0.255 0.058 0.434 0.083 0.113 0.234 0.216 0.335 0.228s1.442-0.326 2.978-0.753l2.794-0.775 7.738 1.564 4.673-0.744c5.215-0.83 5.16-0.816 5.46-1.444 0.345-0.722 0.099-1.488-0.59-1.835l-0.373-0.188 0.453-0.451c2.247-2.238 2.858-5.538 1.543-8.349-0.414-0.886-0.685-1.286-1.355-2-1.618-1.726-4.129-2.555-6.449-2.128zM20.362 3.964c4.249 1.368 5.791 6.449 3.028 9.976-0.442 0.565-1.209 1.203-1.861 1.55l-0.515 0.274-2.92-0.042-0.047-0.387c-0.095-0.785-0.581-1.52-1.251-1.89-0.492-0.271-1.12-0.364-2.468-0.365l-1.12-0.001-0.25-0.555c-0.388-0.862-0.532-1.568-0.527-2.585 0.005-1.042 0.142-1.665 0.572-2.604 0.806-1.76 2.384-3.054 4.259-3.491 0.705-0.164 2.423-0.098 3.099 0.119zM22.63 20.406c-1.27 0.207-2.353 0.816-3.001 1.685l-0.296 0.397-3.434 0.051-0.504 0.252c-0.816 0.407-1.419 1.279-1.419 2.049v0.265l-2.4 0.002c-2.476 0.002-2.907 0.043-3.283 0.314-0.435 0.314-0.635 1.039-0.436 1.575 0.112 0.3 0.506 0.696 0.784 0.786 0.128 0.042 2.306 0.408 4.841 0.813l4.609 0.738 7.725-1.564 2.827 0.783c3.037 0.842 3.113 0.852 3.306 0.444 0.117-0.247 0.010-0.543-0.236-0.654-0.089-0.040-1.448-0.427-3.020-0.861l-2.858-0.788-7.77 1.573-4.519-0.719c-4.86-0.773-4.932-0.791-4.687-1.165l0.109-0.167 11.472-0.077 1.247-0.522c0.686-0.287 1.311-0.586 1.389-0.663 0.286-0.283 0.083-0.845-0.305-0.845-0.098 0-0.729 0.224-1.403 0.498l-1.226 0.498h-5.195l0.053-0.249c0.094-0.441 0.332-0.818 0.654-1.034l0.314-0.211 1.933-0.038c1.063-0.021 1.977-0.067 2.029-0.101s0.167-0.204 0.254-0.377c0.204-0.406 0.77-0.961 1.243-1.22 0.641-0.351 1.247-0.469 2.187-0.425 1.106 0.052 2.098 0.284 3.515 0.822 1.389 0.528 2.1 0.678 3.494 0.741 1.113 0.050 1.215 0.024 1.351-0.338 0.093-0.249-0.056-0.534-0.33-0.631-0.125-0.044-0.541-0.080-0.925-0.080-0.884 0-1.861-0.172-2.682-0.472-1.661-0.607-2.134-0.757-2.873-0.908-0.78-0.159-2.086-0.252-2.532-0.179z"></path>
<path fill="#fff" style="fill: var(--color1, #fff)" d="M15.962 8.070c0.32-1.511 1.521-2.62 3.008-2.777 0.088-0.009 0.204-0.018 0.256-0.020l0.096-0.003v0.689l-0.136 0.013c-0.763 0.070-1.341 0.341-1.832 0.857-0.376 0.395-0.604 0.832-0.721 1.381-0.050 0.236-0.049 0.851 0.002 1.088 0.12 0.56 0.364 1.015 0.756 1.41 0.336 0.34 0.713 0.57 1.15 0.703 0.207 0.063 0.489 0.111 0.655 0.111l0.126 0v0.703l-0.238-0.014c-0.588-0.036-1.149-0.23-1.672-0.581-0.312-0.209-0.715-0.615-0.921-0.929-0.257-0.391-0.429-0.804-0.529-1.276-0.040-0.186-0.046-0.274-0.046-0.672-0.001-0.407 0.005-0.483 0.047-0.682z"></path>
<path fill="#fff" style="fill: var(--color1, #fff)" d="M17.927 7.227c0.353-0.335 0.794-0.524 1.295-0.558 0.050-0.003 0.122-0.004 0.161-0 0.281 0.022 0.361 0.034 0.516 0.080 0.819 0.24 1.407 0.974 1.482 1.847l0.014 0.158-0.695-0.011-0.013-0.146c-0.028-0.313-0.155-0.576-0.398-0.822-0.279-0.283-0.572-0.406-0.965-0.406-0.926 0-1.579 0.907-1.299 1.802 0.165 0.526 0.629 0.91 1.162 0.96l0.137 0.013v0.692l-0.168-0.012c-0.466-0.033-0.936-0.255-1.28-0.604-0.824-0.834-0.8-2.185 0.053-2.993z"></path>
<path fill="#fff" style="fill: var(--color1, #fff)" d="M15.584 11.797c-0.651-0.837-0.988-1.746-1.056-2.847l-0.012-0.199 0.696 0.011 0.013 0.265c0.025 0.496 0.169 1.050 0.399 1.533 0.478 1.005 1.335 1.774 2.375 2.131 0.393 0.135 0.617 0.178 1.188 0.227l0.136 0.012v0.694l-0.226-0.014c-1.216-0.075-2.303-0.562-3.143-1.406-0.134-0.134-0.3-0.318-0.369-0.407z"></path>
<path fill="#fff" style="fill: var(--color1, #fff)" d="M20.428 9.236c-0.002-0.068 0.017-0.136 0.041-0.152 0.058-0.038 2.649-0.030 2.649 0.009 0 0.016-0.237 0.254-0.527 0.528l-0.527 0.499h-2.092l-0.021 0.969-0.281 0.004v-1.277h2.255l0.222-0.196c0.122-0.108 0.222-0.21 0.222-0.227s-0.072-0.029-0.159-0.027c-0.088 0.002-0.524 0.002-0.969-0.001l-0.809-0.005-0.003-0.123z"></path>
<path fill="#fff" style="fill: var(--color1, #fff)" d="M20.457 11.113v-0.653h0.3v0.349l0.677-0.015c0.372-0.008 0.684-0.003 0.693 0.011s-0.221 0.25-0.51 0.524l-0.526 0.498h-1.12v1.374l0.485-0.443 0.002-0.589h0.3v0.712l-0.478 0.452c-0.263 0.249-0.507 0.475-0.543 0.504-0.062 0.049-0.066-0.010-0.066-1.131v-1.182h1.28l0.222-0.196c0.122-0.108 0.212-0.206 0.2-0.219s-0.223-0.017-0.469-0.010l-0.447 0.013z"></path>
</symbol>
<symbol id="icon-main_feature1" viewBox="0 0 32 32">
<path fill="#fff" style="fill: var(--color1, #fff)" d="M3.593 0.064c-0.059 0.034-0.891 1.22-1.85 2.637l-1.743 2.575 0.024 1.21c0.024 1.195 0.027 1.215 0.242 1.663 0.295 0.613 0.693 1.020 1.281 1.309 0.266 0.131 0.526 0.238 0.578 0.238 0.079 0 0.094 1.495 0.094 9.362v9.362l0.338 0.333h7.266l2.65 1.509c1.457 0.83 2.778 1.561 2.934 1.624 0.336 0.136 0.758 0.153 1.083 0.044 0.129-0.043 1.462-0.776 2.963-1.628l2.729-1.549h7.262l0.338-0.333v-9.362c0-7.867 0.015-9.362 0.094-9.362 0.052 0 0.312-0.107 0.578-0.238 0.587-0.289 0.986-0.696 1.281-1.309 0.215-0.448 0.218-0.467 0.242-1.663l0.024-1.21-1.744-2.576c-0.959-1.417-1.797-2.604-1.863-2.639-0.158-0.083-24.656-0.080-24.8 0.003zM30.402 4.881h-28.804l2.572-3.798h23.66l2.572 3.798zM4.424 6.619c0 0.359-0.038 0.779-0.084 0.932-0.112 0.372-0.683 0.934-1.061 1.044-0.646 0.188-1.161 0.055-1.648-0.424-0.426-0.419-0.514-0.687-0.514-1.553v-0.653h3.308v0.653zM8.834 6.619c0 0.359-0.038 0.779-0.084 0.932-0.112 0.372-0.683 0.934-1.061 1.044-0.646 0.188-1.161 0.055-1.648-0.424-0.426-0.419-0.514-0.687-0.514-1.553v-0.653h3.308v0.653zM13.244 6.619c0 0.359-0.038 0.779-0.084 0.932-0.112 0.372-0.683 0.934-1.061 1.044-0.646 0.188-1.161 0.055-1.648-0.424-0.426-0.419-0.514-0.687-0.514-1.553v-0.653h3.308v0.653zM17.654 6.619c0 0.359-0.038 0.779-0.084 0.932-0.112 0.372-0.683 0.934-1.061 1.044-0.646 0.188-1.161 0.055-1.648-0.424-0.426-0.419-0.514-0.687-0.514-1.553v-0.653h3.308v0.653zM22.064 6.619c0 0.359-0.038 0.779-0.084 0.932-0.112 0.372-0.683 0.934-1.061 1.044-0.646 0.188-1.161 0.055-1.648-0.424-0.426-0.419-0.514-0.687-0.514-1.553v-0.653h3.308v0.653zM26.474 6.619c0 0.359-0.038 0.779-0.084 0.932-0.112 0.372-0.683 0.934-1.061 1.044-0.646 0.188-1.161 0.055-1.648-0.424-0.426-0.419-0.514-0.687-0.514-1.553v-0.653h3.308v0.653zM30.884 6.619c0 0.359-0.038 0.779-0.084 0.932-0.112 0.372-0.683 0.934-1.061 1.044-0.646 0.188-1.161 0.055-1.648-0.424-0.426-0.419-0.514-0.687-0.514-1.553v-0.653h3.308v0.653zM5.282 8.992c0.183 0.172 0.537 0.409 0.787 0.526 0.411 0.192 0.519 0.212 1.11 0.212s0.699-0.021 1.11-0.212c0.25-0.117 0.599-0.348 0.775-0.514l0.32-0.302 0.32 0.302c0.176 0.166 0.525 0.397 0.775 0.514 0.411 0.192 0.52 0.212 1.11 0.212s0.699-0.021 1.11-0.212c0.25-0.117 0.599-0.348 0.775-0.514l0.32-0.302 0.32 0.302c0.176 0.166 0.525 0.397 0.775 0.514 0.411 0.192 0.519 0.212 1.11 0.212s0.699-0.021 1.11-0.212c0.25-0.117 0.599-0.348 0.775-0.514l0.32-0.302 0.32 0.302c0.176 0.166 0.525 0.397 0.775 0.514 0.411 0.192 0.52 0.212 1.11 0.212s0.699-0.021 1.11-0.212c0.25-0.117 0.599-0.348 0.775-0.514l0.32-0.302 0.32 0.302c0.176 0.166 0.525 0.397 0.775 0.514 0.411 0.192 0.52 0.212 1.11 0.212s0.699-0.021 1.11-0.212c0.25-0.117 0.599-0.348 0.775-0.514l0.32-0.302 0.31 0.292c0.313 0.295 0.806 0.577 1.154 0.659l0.189 0.045v17.969h-4.569l0.418-0.266c0.287-0.182 0.48-0.369 0.614-0.593l0.196-0.327v-9.562l-0.191-0.32c-0.105-0.176-0.322-0.408-0.482-0.515-0.522-0.349-7.933-4.532-8.174-4.613-0.3-0.101-0.681-0.1-0.979 0.001-0.233 0.079-7.421 4.133-8.103 4.57-0.225 0.144-0.429 0.349-0.551 0.553l-0.194 0.324v9.562l0.196 0.327c0.134 0.224 0.327 0.411 0.614 0.593l0.418 0.266h-4.569v-17.969l0.189-0.045c0.357-0.085 0.838-0.364 1.134-0.659 0.163-0.162 0.298-0.3 0.301-0.306s0.154 0.13 0.337 0.303zM20.053 14.688c2.148 1.217 3.975 2.286 4.060 2.377l0.155 0.165v8.936l-0.155 0.165c-0.209 0.222-7.927 4.589-8.111 4.589-0.183 0-7.906-4.368-8.117-4.591l-0.155-0.164v-4.465c0-4.152 0.008-4.475 0.121-4.607 0.171-0.203 7.942-4.611 8.136-4.616 0.090-0.002 1.88 0.97 4.066 2.208z"></path>
<path fill="#fff" style="fill: var(--color1, #fff)" d="M10.179 18.38h11.493l0.846-0.951h-13.333l0.994 0.951zM11.426 19.745l2.634 0.010 0.066 1.49 0.9-1.033c0.495-0.568 0.992-1.141 1.105-1.273l0.205-0.241h-5.885l0.975 1.048zM16.601 20.223c-0.233 0.27-0.393 0.432-0.501 0.626-0.072 0.129-0.122 0.272-0.156 0.472-0.086 0.505-0.073 1.37-0.072 3.269 0.001 1.89 0.038 3.487 0.084 3.549s0.399 0.314 0.786 0.559l0.703 0.445v-8.253l3.094-0 0.969-1.057h-4.569l-0.337 0.39zM14.177 21.856l0.031 2.039 0.031 3.25 0.646 0.417c0.355 0.229 0.672 0.392 0.705 0.361s0.046-2.708 0.029-4.469l-0.030-3.202-1.411 1.603z"></path>
</symbol>
<symbol id="icon-token_feature3" viewBox="0 0 32 32">
<path fill="none" stroke="#fff" style="stroke: var(--color1, #fff)" stroke-linejoin="miter" stroke-linecap="butt" stroke-miterlimit="4" stroke-width="2.1333" d="M15.303 0.922c-0.116 0.066-0.64 0.379-1.165 0.695s-1.001 0.575-1.058 0.575c-0.057 0-0.492 0.253-0.967 0.563s-0.914 0.563-0.977 0.563-0.348 0.16-0.634 0.355c-0.286 0.195-0.884 0.553-1.329 0.795s-0.988 0.565-1.206 0.718c-0.385 0.269-0.39 0.286-0.14 0.526 0.142 0.136 0.668 0.466 1.169 0.733s1.1 0.598 1.332 0.736c0.468 0.278 0.19 0.391 2.628-1.068 0.405-0.242 1.083-0.63 1.506-0.861s0.919-0.538 1.101-0.682c0.367-0.289 0.426-0.272 1.479 0.442 0.338 0.229 0.669 0.416 0.736 0.416s0.436 0.21 0.821 0.468c0.384 0.257 1.152 0.711 1.705 1.009l1.006 0.541 0.465-0.351c0.256-0.193 0.832-0.536 1.28-0.761s0.911-0.516 1.027-0.646c0.194-0.215 0.143-0.281-0.593-0.754-0.443-0.285-0.906-0.553-1.027-0.596s-0.316-0.156-0.432-0.252-0.557-0.351-0.981-0.566c-0.424-0.216-0.948-0.514-1.163-0.663-0.357-0.247-1.429-0.864-3.014-1.738-0.615-0.339-1.192-0.411-1.569-0.196zM4.931 6.939c-0.188 0.135-0.817 0.503-1.398 0.816l-1.055 0.57-0.039 1.969-0.039 1.969 0.509 0.274c1.002 0.539 1.538 0.845 2.011 1.148 0.264 0.169 0.532 0.275 0.596 0.236s0.115-0.862 0.115-1.828v-1.756l0.435-0.24c0.384-0.211 1.785-1.055 2.368-1.426 0.181-0.115 0.171-0.164-0.070-0.35-0.154-0.119-0.564-0.357-0.911-0.529s-0.892-0.49-1.212-0.706c-0.679-0.459-0.85-0.478-1.311-0.147zM15.093 7.143c-0.385 0.244-1.016 0.61-1.402 0.813s-0.701 0.452-0.701 0.554c0 0.101 0.41 0.425 0.911 0.72s1.12 0.668 1.376 0.828c0.547 0.344 0.907 0.371 1.142 0.087 0.093-0.113 0.306-0.247 0.473-0.297 0.358-0.108 2.195-1.217 2.195-1.325 0-0.096-0.361-0.32-1.515-0.939-0.516-0.277-1.037-0.59-1.159-0.697-0.322-0.282-0.538-0.24-1.321 0.255zM25.668 7.089c-0.343 0.217-0.812 0.493-1.044 0.612-0.716 0.368-1.33 0.748-1.33 0.822 0 0.080 0.735 0.533 2.089 1.289l0.923 0.515 0.039 1.841c0.021 1.013 0.075 1.841 0.12 1.841s0.361-0.19 0.704-0.422c0.343-0.232 0.659-0.422 0.703-0.422s0.451-0.226 0.904-0.502l0.824-0.503v-3.738l-0.876-0.464c-0.482-0.255-1.14-0.644-1.462-0.864-0.725-0.494-0.821-0.495-1.594-0.004zM9.781 10.225c-0.377 0.238-1.008 0.607-1.402 0.82l-0.716 0.388-0.039 1.888-0.039 1.888 0.95 0.555c0.522 0.305 1.171 0.676 1.441 0.825s0.71 0.42 0.979 0.603c0.268 0.183 0.549 0.333 0.623 0.333s0.375 0.167 0.668 0.371l0.533 0.371v5.981l0.678 0.437c0.373 0.24 0.714 0.437 0.759 0.437s0.416 0.222 0.826 0.492c0.858 0.567 0.994 0.588 1.501 0.229 0.205-0.145 0.75-0.46 1.213-0.7 1.445-0.75 1.331-0.422 1.337-3.835l0.005-3.009 0.609-0.387c0.335-0.213 0.651-0.387 0.703-0.387s0.474-0.253 0.938-0.563c0.464-0.309 0.883-0.563 0.931-0.563s0.516-0.261 1.041-0.579l0.955-0.579v-1.873c0-1.855-0.003-1.875-0.369-2.164-0.203-0.16-0.425-0.292-0.494-0.292s-0.524-0.253-1.013-0.563c-0.488-0.309-0.994-0.563-1.123-0.563-0.271 0-0.821 0.291-2.397 1.266-0.617 0.382-1.342 0.799-1.612 0.926s-0.667 0.357-0.883 0.511l-0.392 0.28-0.551-0.366c-0.303-0.201-0.593-0.366-0.645-0.366s-0.425-0.221-0.83-0.49c-0.405-0.27-0.885-0.547-1.066-0.617s-0.675-0.355-1.097-0.635c-0.422-0.28-0.895-0.507-1.051-0.506s-0.592 0.197-0.97 0.435zM2.441 19.518l0.037 4.948 1.191 0.67c0.655 0.369 1.507 0.84 1.892 1.046s0.89 0.518 1.121 0.691c0.231 0.174 0.578 0.365 0.771 0.425s0.382 0.155 0.42 0.211c0.039 0.056 0.512 0.34 1.051 0.63s1.149 0.648 1.353 0.794c0.205 0.146 0.41 0.265 0.456 0.265s0.084-0.879 0.084-1.954v-1.954l-0.384-0.097c-0.211-0.053-0.416-0.142-0.456-0.198-0.074-0.104-1.205-0.793-1.824-1.11-0.193-0.099-0.824-0.453-1.402-0.788l-1.051-0.608-0.038-3.091-0.038-3.091-0.453-0.238c-0.625-0.328-1.547-0.854-2.114-1.206-0.261-0.162-0.515-0.294-0.565-0.294s-0.074 2.227-0.054 4.948zM28.842 14.922c-0.284 0.193-0.557 0.352-0.606 0.352s-0.486 0.237-0.971 0.527l-0.881 0.527-0.040 3.073-0.040 3.073-0.874 0.466c-0.48 0.256-1.041 0.598-1.245 0.76s-0.428 0.293-0.496 0.293c-0.068 0-0.518 0.237-0.999 0.527s-1.048 0.617-1.259 0.727l-0.384 0.2v1.797c0 0.988 0.055 1.831 0.123 1.873s0.399-0.111 0.736-0.341c0.337-0.229 0.66-0.418 0.716-0.419s0.429-0.204 0.827-0.45c0.707-0.436 0.998-0.602 2.53-1.435 0.409-0.223 0.924-0.532 1.142-0.687s0.85-0.521 1.402-0.814l1.004-0.532 0.037-4.935c0.020-2.747-0.018-4.935-0.086-4.935s-0.355 0.158-0.639 0.352zM7.625 19.459l0.039 1.934 0.65 0.352c0.357 0.193 0.996 0.557 1.419 0.809s0.84 0.457 0.927 0.457c0.109 0 0.158-0.563 0.158-1.823v-1.823l-0.666-0.38c-0.366-0.209-1.058-0.623-1.538-0.92s-0.908-0.541-0.95-0.541c-0.043 0-0.060 0.87-0.038 1.934zM23.503 17.973c-0.385 0.252-1.079 0.658-1.542 0.902l-0.841 0.444-0.039 1.846c-0.046 2.169-0.060 2.156 1.317 1.283 0.488-0.309 0.937-0.563 0.996-0.563s0.284-0.143 0.499-0.317l0.391-0.316-0.040-1.869-0.040-1.869-0.701 0.458zM12.78 28.532l0 1.864 0.721 0.422c0.397 0.232 1.011 0.592 1.367 0.8 0.675 0.394 1.251 0.487 1.664 0.266 0.134-0.072 0.764-0.429 1.4-0.794l1.156-0.664v-3.764l-1.086 0.583c-0.598 0.321-1.181 0.662-1.297 0.759-0.526 0.44-0.8 0.496-1.141 0.231-0.182-0.14-0.703-0.459-1.158-0.707s-0.958-0.543-1.118-0.655c-0.16-0.112-0.339-0.204-0.399-0.204s-0.109 0.839-0.109 1.864z"></path>
</symbol>
<symbol id="icon-token_feature2" viewBox="0 0 32 32">
<path fill="#fff" style="fill: var(--color1, #fff)" d="M14.69 0.065c-1.861 0.217-3.626 0.876-5.261 1.964-1.072 0.713-1.263 0.992-0.952 1.388 0.234 0.298 0.516 0.245 1.124-0.213 1.267-0.955 2.716-1.599 4.401-1.954 1.020-0.215 2.915-0.217 3.979-0.004 4.334 0.868 7.627 4.164 8.492 8.499 0.198 0.995 0.211 2.884 0.026 3.849-0.85 4.432-4.2 7.785-8.633 8.64-0.957 0.184-2.919 0.169-3.864-0.030-1.268-0.267-2.422-0.706-3.398-1.291-2.676-1.606-4.464-4.144-5.076-7.204-0.213-1.065-0.211-2.961 0.004-3.982 0.355-1.687 0.998-3.137 1.952-4.404 0.458-0.608 0.511-0.89 0.213-1.125-0.391-0.308-0.718-0.080-1.436 1.004-0.961 1.451-1.618 3.169-1.862 4.875l-0.084 0.583h-0.662c-0.364 0-0.785 0.036-0.936 0.081-0.366 0.108-0.918 0.661-1.026 1.027-0.061 0.208-0.081 2.040-0.081 7.584v7.31h-0.636c-0.592 0-0.648 0.012-0.805 0.169l-0.169 0.169 0.022 1.485 0.022 1.485 0.249 0.504c0.3 0.607 0.686 0.985 1.305 1.278l0.445 0.211 16.825 0.036 0.165-0.165c0.218-0.218 0.218-0.524 0.001-0.741l-0.163-0.164h-8.206c-6.248 0-8.272-0.019-8.48-0.081-0.366-0.108-0.918-0.661-1.026-1.027-0.046-0.157-0.081-0.665-0.081-1.183v-0.909h10.659v0.636c0 0.587 0.013 0.649 0.164 0.8l0.164 0.164h7.873l0.163-0.164c0.151-0.151 0.164-0.213 0.164-0.8v-0.636h10.659v0.909c0 0.519-0.035 1.027-0.081 1.183-0.108 0.366-0.66 0.919-1.026 1.027-0.203 0.060-1.431 0.081-4.75 0.081h-4.476l-0.163 0.164c-0.217 0.217-0.216 0.523 0.002 0.742l0.166 0.166 9.362-0.038 0.445-0.211c0.619-0.293 1.005-0.672 1.305-1.278l0.249-0.504 0.022-1.485 0.022-1.485-0.338-0.338h-12.137l-0.163 0.164c-0.151 0.151-0.164 0.213-0.164 0.8v0.636h-6.396v-0.636c0-0.587-0.013-0.649-0.164-0.8l-0.164-0.164h-9.799v-14.608l0.164-0.164c0.151-0.151 0.213-0.164 0.799-0.164h0.636v0.303c0 0.492 0.133 1.553 0.275 2.198 0.303 1.375 0.956 2.891 1.749 4.059 0.246 0.362 0.438 0.666 0.427 0.676s-0.415 0.215-0.899 0.457c-0.484 0.242-0.911 0.498-0.949 0.57s-0.069 0.428-0.069 0.793v0.663l-0.202 0.084c-0.448 0.186-0.864 0.86-0.864 1.399 0 0.826 0.773 1.6 1.599 1.6s1.599-0.774 1.599-1.6c0-0.54-0.416-1.214-0.864-1.399-0.195-0.081-0.202-0.098-0.202-0.509v-0.425l1.61-0.808 0.484 0.46c0.266 0.253 0.654 0.588 0.861 0.745l0.377 0.284v1.235l-0.202 0.084c-0.274 0.114-0.69 0.6-0.786 0.92-0.182 0.609-0.049 1.114 0.419 1.582 0.635 0.635 1.469 0.67 2.129 0.089 0.561-0.494 0.713-1.254 0.381-1.905-0.146-0.287-0.517-0.647-0.738-0.718-0.108-0.034-0.138-0.099-0.138-0.306 0-0.144 0.016-0.262 0.035-0.262s0.251 0.109 0.515 0.242c1.269 0.64 2.606 1.014 4.264 1.193l0.383 0.041v0.32c0 0.294-0.017 0.327-0.202 0.404-0.448 0.186-0.864 0.86-0.864 1.399 0 0.826 0.773 1.6 1.599 1.6s1.599-0.774 1.599-1.6c0-0.54-0.416-1.214-0.864-1.399-0.186-0.077-0.202-0.11-0.202-0.404v-0.32l0.383-0.041c1.688-0.183 2.987-0.551 4.33-1.226 0.301-0.151 0.563-0.275 0.582-0.275s0.035 0.131 0.035 0.292c0 0.262-0.021 0.3-0.202 0.376-0.448 0.186-0.864 0.86-0.864 1.399 0 0.826 0.773 1.6 1.599 1.6s1.599-0.774 1.599-1.6c0-0.54-0.416-1.214-0.864-1.399l-0.202-0.084 0.001-0.675 0.002-0.675 0.282-0.199c0.155-0.11 0.512-0.419 0.792-0.687l0.511-0.488 1.61 0.808v0.425c0 0.41-0.007 0.428-0.202 0.509-0.448 0.186-0.864 0.86-0.864 1.399 0 0.826 0.773 1.6 1.599 1.6s1.599-0.774 1.599-1.6c0-0.54-0.416-1.214-0.864-1.399l-0.202-0.084v-0.663c0-0.365-0.031-0.721-0.070-0.793s-0.465-0.328-0.949-0.57c-0.484-0.242-0.889-0.448-0.899-0.457s0.182-0.314 0.427-0.676c0.793-1.168 1.446-2.683 1.749-4.059 0.142-0.644 0.275-1.706 0.275-2.198v-0.303h0.636c0.586 0 0.649 0.013 0.799 0.164l0.164 0.164v13.214l0.164 0.164c0.216 0.217 0.523 0.217 0.739 0l0.164-0.164v-6.613c0-4.916-0.020-6.681-0.079-6.877-0.044-0.145-0.209-0.409-0.367-0.585-0.381-0.424-0.704-0.533-1.587-0.533h-0.678l-0.081-0.583c-0.452-3.271-2.343-6.254-5.165-8.15-1.090-0.732-2.776-1.429-4.104-1.696-1.149-0.231-2.539-0.294-3.639-0.166zM14.769 2.198c-4.956 0.684-8.571 5.003-8.338 9.962 0.163 3.471 2.155 6.551 5.258 8.129 1.405 0.714 2.638 1.001 4.311 1.001 1.283 0 1.892-0.088 2.97-0.434 1.020-0.327 2.568-1.185 3.027-1.679 0.181-0.195 0.168-0.486-0.032-0.686-0.255-0.255-0.456-0.21-1.163 0.263-1.181 0.789-2.272 1.216-3.603 1.412-2.657 0.39-5.266-0.49-7.204-2.43-1.237-1.238-1.994-2.63-2.363-4.342-0.171-0.792-0.171-2.541 0-3.334 0.372-1.728 1.11-3.082 2.365-4.342 1.217-1.221 2.501-1.931 4.229-2.338 0.829-0.195 2.598-0.209 3.438-0.027 1.729 0.375 3.080 1.111 4.339 2.368 1.938 1.933 2.818 4.545 2.428 7.207-0.195 1.332-0.622 2.424-1.411 3.606-0.472 0.708-0.518 0.909-0.263 1.164 0.358 0.358 0.657 0.189 1.246-0.702 0.671-1.015 1.185-2.276 1.434-3.517 0.175-0.872 0.159-2.759-0.032-3.631-0.319-1.457-0.894-2.732-1.747-3.869-1.434-1.911-3.532-3.229-5.874-3.688-0.663-0.13-2.368-0.182-3.018-0.093zM14.094 5.954c-0.957 0.638-1.758 1.211-1.782 1.272-0.136 0.354 0.117 0.767 0.469 0.767 0.127 0 0.658-0.315 1.702-1.010l1.517-1.010 1.517 1.010c1.043 0.695 1.575 1.010 1.702 1.010 0.365 0 0.627-0.46 0.45-0.791-0.101-0.189-3.484-2.409-3.67-2.409-0.103 0-0.819 0.436-1.905 1.161zM10.834 9.224l-0.164 0.164v4.679l0.164 0.164c0.103 0.103 0.24 0.164 0.369 0.164s0.266-0.060 0.369-0.164c0.16-0.16 0.164-0.188 0.167-1.25l0.004-1.086 0.595 1.181c0.327 0.649 0.653 1.212 0.725 1.25 0.216 0.116 0.469 0.079 0.641-0.094l0.164-0.164v-4.679l-0.164-0.164c-0.103-0.103-0.24-0.164-0.369-0.164s-0.266 0.060-0.369 0.164c-0.16 0.16-0.164 0.188-0.167 1.25l-0.004 1.086-0.595-1.181c-0.327-0.649-0.653-1.212-0.725-1.25-0.216-0.116-0.469-0.079-0.641 0.094zM15.098 9.224l-0.164 0.164v4.679l0.164 0.164c0.103 0.103 0.24 0.164 0.369 0.164s0.266-0.060 0.369-0.164c0.158-0.158 0.164-0.197 0.164-1.067v-0.903h0.636c0.586 0 0.649-0.013 0.799-0.164 0.103-0.103 0.164-0.24 0.164-0.37s-0.060-0.267-0.164-0.37c-0.151-0.151-0.213-0.164-0.799-0.164h-0.636v-1.067h0.902c0.869 0 0.908-0.006 1.066-0.164 0.103-0.103 0.164-0.24 0.164-0.37s-0.060-0.267-0.164-0.37c-0.162-0.162-0.174-0.164-1.435-0.164s-1.273 0.001-1.435 0.164zM19.361 9.224c-0.103 0.103-0.164 0.24-0.164 0.37 0 0.34 0.252 0.533 0.697 0.533h0.369v3.94l0.164 0.164c0.103 0.103 0.24 0.164 0.369 0.164s0.266-0.060 0.369-0.164l0.164-0.164v-3.94h0.369c0.445 0 0.697-0.193 0.697-0.533 0-0.13-0.060-0.267-0.164-0.37-0.162-0.162-0.174-0.164-1.435-0.164s-1.273 0.001-1.435 0.164zM8.702 11.357c-0.331 0.331-0.096 0.903 0.369 0.903 0.13 0 0.266-0.060 0.369-0.164s0.164-0.24 0.164-0.37-0.060-0.267-0.164-0.37c-0.103-0.103-0.24-0.164-0.369-0.164s-0.266 0.060-0.369 0.164zM22.559 11.357c-0.331 0.331-0.096 0.903 0.369 0.903 0.274 0 0.533-0.259 0.533-0.533s-0.259-0.533-0.533-0.533c-0.13 0-0.266 0.060-0.369 0.164zM12.433 15.624c-0.169 0.169-0.21 0.425-0.102 0.627 0.1 0.188 3.484 2.409 3.669 2.409s3.569-2.222 3.669-2.409c0.177-0.331-0.085-0.791-0.45-0.791-0.127 0-0.658 0.315-1.702 1.010l-1.517 1.010-1.517-1.010c-1.628-1.084-1.759-1.138-2.050-0.847zM5.71 22.558c0.33 0.331 0.096 0.903-0.369 0.903-0.274 0-0.533-0.259-0.533-0.533s0.259-0.533 0.533-0.533c0.13 0 0.266 0.060 0.369 0.164zM27.029 22.558c0.103 0.103 0.164 0.24 0.164 0.37s-0.060 0.267-0.164 0.37c-0.103 0.103-0.24 0.164-0.369 0.164s-0.266-0.060-0.369-0.164c-0.103-0.103-0.164-0.24-0.164-0.37s0.060-0.267 0.164-0.37c0.103-0.103 0.24-0.164 0.369-0.164s0.266 0.060 0.369 0.164zM10.107 23.625c0.331 0.331 0.096 0.903-0.369 0.903-0.274 0-0.533-0.259-0.533-0.533s0.259-0.533 0.533-0.533c0.13 0 0.266 0.060 0.369 0.164zM22.765 23.625c0.103 0.103 0.164 0.24 0.164 0.37s-0.060 0.267-0.164 0.37c-0.103 0.103-0.24 0.164-0.369 0.164s-0.266-0.060-0.369-0.164c-0.103-0.103-0.164-0.24-0.164-0.37s0.060-0.267 0.164-0.37c0.103-0.103 0.24-0.164 0.369-0.164s0.266 0.060 0.369 0.164zM16.369 25.225c0.103 0.103 0.164 0.24 0.164 0.37s-0.060 0.267-0.164 0.37c-0.33 0.331-0.902 0.096-0.902-0.37 0-0.274 0.259-0.533 0.533-0.533 0.13 0 0.266 0.060 0.369 0.164zM2.839 28.959c-0.331 0.331-0.096 0.903 0.369 0.903 0.274 0 0.533-0.259 0.533-0.533s-0.259-0.533-0.533-0.533c-0.13 0-0.266 0.060-0.369 0.164zM4.971 28.959c-0.33 0.331-0.096 0.903 0.369 0.903 0.274 0 0.533-0.259 0.533-0.533s-0.259-0.533-0.533-0.533c-0.13 0-0.266 0.060-0.369 0.164zM26.29 28.959c-0.103 0.103-0.164 0.24-0.164 0.37s0.060 0.267 0.164 0.37c0.103 0.103 0.24 0.164 0.369 0.164s0.266-0.060 0.369-0.164c0.103-0.103 0.164-0.24 0.164-0.37s-0.060-0.267-0.164-0.37c-0.103-0.103-0.24-0.164-0.369-0.164s-0.266 0.060-0.369 0.164zM28.422 28.959c-0.103 0.103-0.164 0.24-0.164 0.37s0.060 0.267 0.164 0.37c0.103 0.103 0.24 0.164 0.369 0.164s0.266-0.060 0.369-0.164c0.103-0.103 0.164-0.24 0.164-0.37s-0.060-0.267-0.164-0.37c-0.103-0.103-0.24-0.164-0.369-0.164s-0.266 0.060-0.369 0.164z"></path>
</symbol>
<symbol id="icon-token_feature1" viewBox="0 0 32 32">
<path fill="#fff" style="fill: var(--color1, #fff)" d="M14.485 5.485c0.346-1.648 1.643-2.857 3.249-3.028 0.096-0.010 0.22-0.020 0.277-0.021l0.103-0.003v0.751l-0.147 0.014c-0.824 0.077-1.449 0.372-1.979 0.934-0.406 0.431-0.652 0.907-0.778 1.506-0.054 0.257-0.053 0.928 0.002 1.186 0.13 0.611 0.393 1.106 0.816 1.538 0.363 0.371 0.77 0.621 1.242 0.766 0.224 0.069 0.528 0.121 0.708 0.121l0.136 0v0.766l-0.257-0.016c-0.635-0.039-1.24-0.251-1.805-0.633-0.337-0.228-0.772-0.671-0.995-1.013-0.278-0.426-0.463-0.877-0.571-1.391-0.043-0.202-0.049-0.299-0.050-0.733-0.001-0.443 0.005-0.527 0.050-0.744z"></path>
<path fill="#fff" style="fill: var(--color1, #fff)" d="M16.607 4.565c0.381-0.365 0.857-0.572 1.398-0.608 0.054-0.004 0.132-0.004 0.174-0.001 0.303 0.024 0.39 0.037 0.558 0.087 0.884 0.262 1.52 1.062 1.601 2.013l0.015 0.173-0.751-0.012-0.014-0.159c-0.030-0.342-0.167-0.628-0.43-0.897-0.302-0.308-0.618-0.443-1.043-0.443-1 0-1.706 0.989-1.403 1.965 0.178 0.574 0.679 0.992 1.255 1.047l0.148 0.014v0.755l-0.181-0.013c-0.504-0.036-1.011-0.278-1.383-0.658-0.89-0.91-0.864-2.382 0.057-3.263z"></path>
<path fill="#fff" style="fill: var(--color1, #fff)" d="M14.076 9.549c-0.703-0.912-1.067-1.903-1.141-3.104l-0.013-0.217 0.752 0.012 0.014 0.289c0.027 0.541 0.182 1.145 0.431 1.671 0.517 1.096 1.442 1.934 2.565 2.323 0.424 0.147 0.666 0.194 1.284 0.248l0.147 0.013v0.757l-0.244-0.015c-1.314-0.082-2.487-0.612-3.394-1.533-0.144-0.147-0.324-0.346-0.399-0.443z"></path>
<path fill="#fff" style="fill: var(--color1, #fff)" d="M19.308 6.756c-0.002-0.074 0.018-0.148 0.044-0.166 0.062-0.042 2.861-0.033 2.861 0.009 0 0.018-0.256 0.276-0.569 0.575l-0.569 0.544h-2.26l-0.023 1.056-0.304 0.004v-1.392h2.435l0.24-0.213c0.132-0.117 0.24-0.229 0.24-0.247s-0.077-0.032-0.172-0.029c-0.095 0.002-0.565 0.002-1.046-0.001l-0.874-0.006-0.004-0.134z"></path>
<path fill="#fff" style="fill: var(--color1, #fff)" d="M19.34 8.803v-0.712h0.324v0.381l0.731-0.016c0.402-0.009 0.739-0.004 0.748 0.012s-0.239 0.273-0.551 0.572l-0.568 0.543h-1.21v1.498l0.524-0.483 0.003-0.642h0.324v0.776l-0.516 0.493c-0.284 0.271-0.548 0.518-0.587 0.549-0.067 0.053-0.071-0.011-0.071-1.233v-1.289h1.383l0.24-0.214c0.132-0.117 0.229-0.225 0.216-0.238s-0.241-0.018-0.506-0.010l-0.482 0.014z"></path>
<path fill="#fff" style="fill: var(--color1, #fff)" d="M24.518 7.109c0 3.926-3.112 7.109-6.95 7.109s-6.95-3.183-6.95-7.109c0-3.926 3.112-7.109 6.95-7.109s6.95 3.183 6.95 7.109zM11.313 7.109c0 3.534 2.8 6.398 6.255 6.398s6.255-2.865 6.255-6.398c0-3.534-2.8-6.398-6.255-6.398s-6.255 2.865-6.255 6.398z"></path>
<path fill="#fff" style="fill: var(--color1, #fff)" d="M25.668 10.54c-0.833 0.315-1.3 1.333-1.007 2.193l0.077 0.227-4.595 4.604-0.258-0.093c-0.545-0.197-1.224-0.047-1.642 0.361l-0.181 0.177-3.864-1.579-0.075-0.413c-0.3-1.649-2.392-1.995-3.131-0.517-0.188 0.376-0.253 0.917-0.151 1.248 0.037 0.119-0.274 0.392-2.198 1.934l-2.241 1.796-0.412-0.143c-0.969-0.335-1.919 0.152-2.195 1.126-0.38 1.336 0.847 2.523 2.15 2.080 0.732-0.249 1.16-0.941 1.101-1.781l-0.033-0.469 2.175-1.738c1.196-0.956 2.212-1.761 2.257-1.788s0.211 0.010 0.369 0.083c0.547 0.254 1.247 0.149 1.709-0.256l0.269-0.235 3.853 1.574 0.076 0.419c0.287 1.579 2.254 1.981 3.072 0.627 0.157-0.26 0.203-0.421 0.223-0.791 0.016-0.289-0.007-0.545-0.061-0.679l-0.087-0.215 4.593-4.609 0.261 0.094c0.559 0.202 1.145 0.081 1.602-0.33 0.429-0.386 0.578-0.72 0.579-1.294 0-0.687-0.315-1.216-0.913-1.531-0.338-0.178-0.968-0.218-1.322-0.084zM26.561 11.549c0.239 0.126 0.328 0.291 0.328 0.604 0 0.32-0.156 0.55-0.437 0.645-0.609 0.206-1.132-0.533-0.739-1.044 0.235-0.306 0.525-0.376 0.849-0.205zM12.94 15.816c0.138 0.131 0.181 0.235 0.181 0.433 0 0.332-0.086 0.494-0.328 0.622-0.31 0.164-0.516 0.128-0.774-0.136-0.209-0.214-0.229-0.265-0.197-0.511 0.043-0.325 0.193-0.514 0.47-0.589 0.269-0.072 0.429-0.028 0.648 0.18zM23.85 17.035l-0.156 0.129v14.579l0.156 0.129c0.146 0.121 0.288 0.129 2.391 0.129h2.236l0.323-0.331v-7.204c0-7.186-0-7.205-0.137-7.382l-0.137-0.178h-2.261c-2.128 0-2.27 0.008-2.416 0.129zM27.812 30.989h-3.096v-13.073h3.096v13.073zM19.857 18.659c0.237 0.266 0.242 0.588 0.015 0.865-0.209 0.254-0.473 0.318-0.777 0.188-0.277-0.119-0.375-0.283-0.373-0.628 0.004-0.636 0.711-0.901 1.135-0.425zM10.312 21.13c-0.078 0.016-0.196 0.090-0.264 0.166-0.116 0.131-0.123 0.378-0.141 5.134-0.010 2.748-0.002 5.065 0.018 5.149s0.095 0.213 0.167 0.286c0.124 0.127 0.228 0.133 2.391 0.133h2.261l0.286-0.312v-5.104c0-3.201-0.024-5.15-0.064-5.228-0.127-0.242-0.415-0.273-2.498-0.263-1.109 0.005-2.080 0.022-2.157 0.037zM5.848 21.448c0.249 0.255 0.283 0.469 0.125 0.783-0.126 0.248-0.284 0.336-0.612 0.336-0.637 0-0.87-0.875-0.324-1.215 0.318-0.198 0.55-0.171 0.811 0.097zM14.044 30.989h-3.096v-8.827h3.096v8.827zM17.095 23.982c-0.079 0.033-0.175 0.12-0.214 0.193-0.047 0.090-0.070 1.315-0.070 3.732v3.598l0.152 0.147c0.15 0.145 0.183 0.146 2.397 0.146 2.112 0 2.254-0.008 2.4-0.129l0.156-0.129 0.036-7.229-0.388-0.397-2.163 0.004c-1.189 0.002-2.227 0.031-2.306 0.064zM20.895 30.787h-3.096v-5.795h3.096v5.795zM2.844 27.075v4.594l0.323 0.331h2.236c2.102 0 2.245-0.008 2.391-0.129l0.156-0.129 0.019-2.243c0.020-2.389 0.004-2.542-0.29-2.679-0.111-0.052-0.862-0.076-2.337-0.076h-2.174l-0.323 0.331zM6.929 30.989h-3.096v-3.234h3.096v3.234z"></path>
</symbol>
<symbol id="icon-copy-1-Traced" viewBox="0 0 32 32">
<path fill="#fff" style="fill: var(--color1, #fff)" d="M2.799 0.114c-1.302 0.343-2.365 1.415-2.698 2.724-0.088 0.345-0.101 1.569-0.101 9.397 0 9.917-0.024 9.34 0.418 10.228 0.287 0.578 1.004 1.294 1.582 1.581 0.663 0.329 1.109 0.418 2.113 0.418h0.886v-2.465l-0.683-0c-0.376-0-0.802-0.033-0.948-0.074-0.34-0.094-0.733-0.487-0.827-0.827-0.104-0.374-0.104-17.346 0-17.72 0.094-0.34 0.487-0.732 0.827-0.827 0.374-0.104 17.35-0.104 17.725 0 0.34 0.094 0.733 0.487 0.827 0.827 0.040 0.146 0.074 0.557 0.074 0.915l0 0.65h2.466v-0.852c0-0.543-0.037-0.996-0.101-1.249-0.337-1.324-1.405-2.391-2.729-2.728-0.583-0.148-18.265-0.145-18.83 0.004zM10.62 7.543c-1.514 0.256-2.736 1.441-3.055 2.96-0.147 0.698-0.147 17.758 0 18.456 0.308 1.468 1.463 2.623 2.932 2.931 0.698 0.147 17.762 0.147 18.461 0 1.472-0.309 2.623-1.459 2.932-2.931 0.147-0.698 0.147-17.758 0-18.456-0.279-1.329-1.243-2.401-2.566-2.851l-0.433-0.148-8.964-0.010c-4.93-0.005-9.118 0.016-9.307 0.048zM28.777 10.129c0.283 0.144 0.419 0.284 0.572 0.587 0.098 0.193 0.108 1.032 0.108 9.015s-0.010 8.822-0.108 9.015c-0.153 0.303-0.29 0.442-0.572 0.587-0.239 0.122-0.544 0.126-9.051 0.126-7.984 0-8.823-0.010-9.017-0.108-0.303-0.153-0.443-0.29-0.587-0.572-0.122-0.239-0.126-0.544-0.126-9.048s0.004-8.809 0.126-9.048c0.141-0.277 0.28-0.414 0.574-0.569 0.179-0.095 1.101-0.106 9.016-0.108 8.523-0.003 8.825 0.002 9.064 0.123z"></path>
</symbol>
<symbol id="icon-fund_feature3" viewBox="0 0 32 32">
<path fill="#fff" style="fill: var(--color1, #fff)" d="M15.305 0.101c-0.183 0.056-1.758 0.886-3.499 1.844-3.256 1.792-3.639 2.044-3.946 2.591l-0.144 0.256h-1.081l-0.508-0.521 0.122-0.356c0.196-0.571 0.163-1.151-0.096-1.677-0.644-1.309-2.296-1.625-3.369-0.643-0.423 0.387-0.645 0.847-0.692 1.439-0.122 1.519 1.375 2.659 2.841 2.162l0.424-0.144 0.84 0.807h1.278v2.667h-3.256l-0.163-0.356c-0.2-0.438-0.541-0.788-0.999-1.025-0.296-0.154-0.431-0.181-0.914-0.182-0.674-0.002-1.061 0.154-1.522 0.614-0.434 0.434-0.576 0.8-0.576 1.482s0.142 1.047 0.576 1.482c0.448 0.448 0.849 0.614 1.488 0.617 0.439 0.002 0.599-0.029 0.905-0.173 0.471-0.221 0.832-0.581 1.041-1.037l0.163-0.356h3.256v2.134h-1.278l-0.84 0.807-0.405-0.137c-0.696-0.235-1.373-0.14-1.928 0.268-0.348 0.256-0.681 0.726-0.681 0.961 0 0.241 0.276 0.502 0.532 0.502 0.16 0 0.28-0.079 0.554-0.361 0.524-0.541 1.046-0.587 1.583-0.137 0.307 0.257 0.579 0.298 0.746 0.114 0.058-0.064 0.278-0.304 0.488-0.534l0.382-0.417h0.83l0.030 0.41c0.024 0.325 0.061 0.436 0.182 0.533 0.214 0.174 0.51 0.157 0.707-0.040l0.164-0.164v-3.926c0-4.357-0.003-4.32 0.435-4.771 0.142-0.147 1.3-0.828 3.111-1.831 1.587-0.879 3.014-1.663 3.173-1.743 0.39-0.197 0.842-0.242 1.198-0.118 0.544 0.189 6.231 3.386 6.526 3.669 0.495 0.474 0.485 0.373 0.488 4.775 0.002 4.123-0.005 4.027 0.31 4.195 0.225 0.12 0.412 0.093 0.591-0.086 0.134-0.134 0.164-0.23 0.164-0.533v-0.37h0.846l0.377 0.395c0.207 0.217 0.377 0.423 0.377 0.456 0 0.076 0.298 0.216 0.46 0.216 0.066 0 0.252-0.105 0.413-0.233 0.561-0.446 1.049-0.403 1.573 0.139 0.407 0.42 0.648 0.471 0.922 0.197 0.214-0.214 0.206-0.409-0.030-0.783-0.48-0.758-1.501-1.095-2.396-0.791l-0.424 0.144-0.84-0.807h-1.278v-2.134h3.256l0.163 0.356c0.2 0.438 0.541 0.788 0.999 1.025 0.296 0.154 0.431 0.181 0.914 0.182 0.674 0.002 1.061-0.154 1.522-0.614 0.434-0.434 0.576-0.8 0.576-1.482s-0.142-1.047-0.576-1.482c-0.461-0.461-0.847-0.617-1.522-0.615-0.483 0.002-0.618 0.029-0.914 0.182-0.458 0.237-0.798 0.587-0.999 1.025l-0.163 0.356h-3.256v-2.667h1.278l0.84-0.807 0.424 0.144c1.033 0.35 2.148-0.126 2.638-1.128 0.155-0.316 0.184-0.462 0.184-0.91s-0.030-0.594-0.184-0.91c-0.216-0.441-0.664-0.878-1.103-1.077-0.436-0.198-1.254-0.198-1.69 0-1.033 0.468-1.548 1.626-1.191 2.68l0.144 0.427-0.251 0.257c-0.25 0.256-0.253 0.257-0.787 0.257l-0.536-0-0.179-0.283c-0.099-0.156-0.294-0.393-0.433-0.528-0.324-0.312-6.377-3.702-6.908-3.868-0.465-0.146-1.021-0.15-1.477-0.011zM4.697 2.215c0.685 0.286 0.852 1.185 0.319 1.717-0.432 0.433-1.050 0.433-1.482 0-0.824-0.825 0.085-2.168 1.163-1.717zM28.157 2.215c0.685 0.286 0.852 1.185 0.319 1.717-0.436 0.436-1.033 0.433-1.474-0.008-0.828-0.829 0.073-2.162 1.155-1.71zM9.771 7.090l-0.164 0.164v4.68l0.164 0.164c0.199 0.199 0.493 0.214 0.712 0.036 0.155-0.125 0.158-0.153 0.191-1.579l0.033-1.452 1.153 1.54c0.634 0.847 1.199 1.558 1.255 1.579 0.211 0.081 0.436 0.034 0.594-0.124l0.164-0.164v-4.68l-0.164-0.164c-0.199-0.199-0.493-0.214-0.712-0.036-0.155 0.125-0.158 0.153-0.191 1.579l-0.033 1.452-1.153-1.54c-0.634-0.847-1.199-1.558-1.255-1.579-0.211-0.081-0.436-0.034-0.594 0.125zM15.102 7.090l-0.164 0.164v4.68l0.164 0.164c0.103 0.103 0.24 0.164 0.37 0.164s0.266-0.060 0.37-0.164c0.158-0.158 0.164-0.197 0.164-1.067v-0.903h0.903c0.87 0 0.909-0.006 1.066-0.164 0.216-0.217 0.216-0.523 0-0.74-0.158-0.158-0.197-0.164-1.066-0.164h-0.903v-1.067h0.903c0.87 0 0.909-0.006 1.066-0.164 0.103-0.103 0.164-0.24 0.164-0.37s-0.060-0.267-0.164-0.37c-0.162-0.162-0.174-0.164-1.436-0.164s-1.274 0.001-1.436 0.164zM19.368 7.090c-0.103 0.103-0.164 0.24-0.164 0.37 0 0.34 0.252 0.533 0.697 0.533h0.37v3.941l0.164 0.164c0.103 0.103 0.24 0.164 0.37 0.164s0.266-0.060 0.37-0.164l0.164-0.164v-3.941h0.37c0.445 0 0.697-0.193 0.697-0.533 0-0.13-0.060-0.267-0.164-0.37-0.162-0.162-0.174-0.164-1.436-0.164s-1.274 0.001-1.436 0.164zM2.565 8.084c0.69 0.288 0.851 1.17 0.311 1.71-0.441 0.441-1.038 0.444-1.474 0.008-0.824-0.825 0.085-2.168 1.163-1.717zM30.289 8.084c0.69 0.288 0.851 1.17 0.311 1.71-0.441 0.441-1.038 0.444-1.474 0.008-0.824-0.825 0.085-2.168 1.163-1.717zM3.693 15.033c-1.771 0.388-3.207 1.843-3.583 3.63-0.147 0.7-0.147 9.896 0 10.52 0.311 1.32 1.446 2.443 2.748 2.719 1.031 0.219 2.29 0.063 3.073-0.38 0.5-0.283 1.191-0.993 1.458-1.497 0.167-0.316 0.46-0.64 1.309-1.45l1.093-1.043h12.429l1.091 1.041c0.851 0.812 1.138 1.131 1.307 1.45 0.122 0.231 0.42 0.614 0.683 0.877 0.757 0.758 1.623 1.098 2.799 1.097 1.229-0 2.1-0.343 2.851-1.121 0.732-0.758 1.045-1.576 1.047-2.731 0.001-0.57-0.012-0.633-0.163-0.784-0.216-0.217-0.523-0.217-0.739 0-0.149 0.149-0.164 0.216-0.164 0.76 0 1.348-0.632 2.295-1.784 2.674-0.777 0.255-1.924 0.152-2.58-0.232-0.401-0.235-0.881-0.77-1.065-1.186-0.128-0.29-0.388-0.572-1.496-1.624-0.967-0.918-1.399-1.284-1.548-1.314-0.268-0.054-12.638-0.054-12.906-0.001-0.144 0.029-0.593 0.41-1.548 1.315-1.111 1.053-1.372 1.335-1.5 1.624-0.183 0.415-0.664 0.95-1.065 1.185-0.93 0.546-2.481 0.484-3.314-0.131-0.426-0.314-0.755-0.778-0.916-1.29-0.129-0.408-0.134-0.606-0.134-5.204 0-5.181-0.002-5.15 0.37-5.919 0.382-0.789 1.117-1.452 2.004-1.807l0.458-0.184h24.126l0.5 0.185c0.991 0.367 1.777 1.144 2.182 2.157l0.183 0.459 0.034 3.524 0.034 3.524 0.157 0.127c0.219 0.177 0.514 0.162 0.712-0.036l0.164-0.164v-3.298c0-3.815-0.017-3.978-0.504-4.966-0.495-1.003-1.37-1.827-2.407-2.265-0.852-0.36-0.338-0.347-13.138-0.339-9.75 0.006-11.915 0.023-12.258 0.098zM24.003 16.616c-0.327 0.103-0.885 0.681-0.985 1.021-0.185 0.625-0.054 1.124 0.417 1.595 0.682 0.683 1.623 0.668 2.255-0.035 0.62-0.69 0.6-1.519-0.051-2.17-0.469-0.469-1.015-0.606-1.635-0.411zM4.972 17.226c-0.158 0.158-0.164 0.197-0.164 1.067v0.903h-0.903c-0.87 0-0.909 0.006-1.066 0.164-0.162 0.162-0.164 0.174-0.164 1.437s0.001 1.274 0.164 1.437c0.158 0.158 0.197 0.164 1.066 0.164h0.903v0.903c0 0.87 0.006 0.909 0.164 1.067 0.162 0.162 0.174 0.164 1.436 0.164s1.274-0.001 1.436-0.164c0.158-0.158 0.164-0.197 0.164-1.067v-0.903h0.903c0.87 0 0.909-0.006 1.066-0.164 0.162-0.162 0.164-0.174 0.164-1.437s-0.001-1.274-0.164-1.437c-0.158-0.158-0.197-0.164-1.066-0.164h-0.903v-0.903c0-0.87-0.006-0.909-0.164-1.067-0.162-0.162-0.174-0.164-1.436-0.164s-1.274 0.001-1.436 0.164zM12.437 17.226c-0.103 0.103-0.164 0.24-0.164 0.37s0.060 0.267 0.164 0.37c0.162 0.162 0.174 0.164 1.436 0.164s1.274-0.001 1.436-0.164c0.103-0.103 0.164-0.24 0.164-0.37s-0.060-0.267-0.164-0.37c-0.162-0.162-0.174-0.164-1.436-0.164s-1.274 0.001-1.436 0.164zM16.702 17.226c-0.103 0.103-0.164 0.24-0.164 0.37s0.060 0.267 0.164 0.37c0.162 0.162 0.174 0.164 1.436 0.164s1.274-0.001 1.436-0.164c0.103-0.103 0.164-0.24 0.164-0.37s-0.060-0.267-0.164-0.37c-0.162-0.162-0.174-0.164-1.436-0.164s-1.274 0.001-1.436 0.164zM24.905 17.759c0.103 0.103 0.164 0.24 0.164 0.37s-0.060 0.267-0.164 0.37c-0.103 0.103-0.24 0.164-0.37 0.164s-0.266-0.060-0.37-0.164c-0.103-0.103-0.164-0.24-0.164-0.37s0.060-0.267 0.164-0.37c0.103-0.103 0.24-0.164 0.37-0.164s0.266 0.060 0.37 0.164zM6.941 19.032c0 0.87 0.006 0.909 0.164 1.067s0.197 0.164 1.066 0.164h0.903v1.067h-0.903c-0.87 0-0.909 0.006-1.066 0.164s-0.164 0.197-0.164 1.067v0.903h-1.066v-0.903c0-0.87-0.006-0.909-0.164-1.067s-0.197-0.164-1.066-0.164h-0.903v-1.067h0.903c0.87 0 0.909-0.006 1.066-0.164s0.164-0.197 0.164-1.067v-0.903h1.066v0.903zM27.202 19.283c-0.327 0.103-0.885 0.681-0.985 1.021-0.185 0.625-0.054 1.124 0.417 1.595 0.682 0.683 1.623 0.668 2.255-0.035 0.62-0.69 0.6-1.519-0.051-2.17-0.469-0.469-1.015-0.606-1.635-0.411zM28.104 20.427c0.103 0.103 0.164 0.24 0.164 0.37s-0.060 0.267-0.164 0.37c-0.103 0.103-0.24 0.164-0.37 0.164s-0.266-0.061-0.37-0.164c-0.103-0.103-0.164-0.24-0.164-0.37s0.060-0.267 0.164-0.37c0.103-0.103 0.24-0.164 0.37-0.164s0.266 0.060 0.37 0.164zM22.403 20.884c-0.327 0.103-0.885 0.681-0.985 1.021-0.185 0.625-0.054 1.124 0.417 1.595 0.345 0.345 0.683 0.498 1.102 0.498 0.826 0 1.599-0.774 1.599-1.6 0-0.419-0.152-0.757-0.498-1.103-0.469-0.469-1.015-0.606-1.635-0.411zM12.437 21.494c-0.162 0.162-0.164 0.174-0.164 1.437 0 1.714-0.114 1.6 1.599 1.6s1.599 0.114 1.599-1.6 0.114-1.6-1.599-1.6c-1.262 0-1.274 0.001-1.436 0.164zM16.702 21.494c-0.162 0.162-0.164 0.174-0.164 1.437 0 1.714-0.114 1.6 1.599 1.6 1.262 0 1.274-0.001 1.436-0.164s0.164-0.174 0.164-1.437c0-1.714 0.114-1.6-1.599-1.6-1.262 0-1.274 0.001-1.436 0.164zM23.306 22.027c0.103 0.103 0.164 0.24 0.164 0.37s-0.060 0.267-0.164 0.37c-0.103 0.103-0.24 0.164-0.37 0.164s-0.266-0.060-0.37-0.164c-0.103-0.103-0.164-0.24-0.164-0.37s0.060-0.267 0.164-0.37c0.103-0.103 0.24-0.164 0.37-0.164s0.266 0.060 0.37 0.164zM14.406 22.93v0.533h-1.066v-1.067h1.066v0.534zM18.671 22.93v0.533h-1.066v-1.067h1.066v0.534zM25.602 23.551c-0.327 0.103-0.885 0.681-0.985 1.021-0.185 0.625-0.054 1.124 0.417 1.595 0.345 0.345 0.683 0.498 1.102 0.498 0.826 0 1.599-0.774 1.599-1.6 0-0.419-0.152-0.757-0.498-1.103-0.469-0.469-1.015-0.606-1.635-0.411zM26.505 24.695c0.103 0.103 0.164 0.24 0.164 0.37s-0.060 0.267-0.164 0.37c-0.103 0.103-0.24 0.164-0.37 0.164s-0.266-0.060-0.37-0.164c-0.103-0.103-0.164-0.24-0.164-0.37s0.060-0.267 0.164-0.37c0.103-0.103 0.24-0.164 0.37-0.164s0.266 0.060 0.37 0.164z"></path>
</symbol>
<symbol id="icon-fund_feature2" viewBox="0 0 32 32">
<path fill="#fff" style="fill: var(--color1, #fff)" d="M17.327 2.777c-2.889 0.531-5.212 2.823-5.802 5.724-0.146 0.719-0.156 2.21-0.018 2.875 0.055 0.263 0.089 0.479 0.077 0.479s-0.185-0.105-0.384-0.232c-0.199-0.128-0.634-0.322-0.966-0.432-0.511-0.168-0.746-0.2-1.512-0.203-1.366-0.005-2.41 0.224-4.318 0.947-1.096 0.415-1.883 0.574-3.204 0.644-0.806 0.043-0.882 0.061-1.039 0.24-0.212 0.241-0.213 0.339-0.005 0.606l0.165 0.212 1.101-0.042c1.262-0.048 1.996-0.185 3.023-0.565 2.236-0.828 2.882-0.978 4.201-0.982 0.757-0.002 0.991 0.027 1.415 0.175 0.696 0.244 1.282 0.703 1.69 1.325 0.185 0.281 0.389 0.532 0.455 0.558s0.894 0.046 1.84 0.046c1.771 0 2.042 0.036 2.433 0.326 0.258 0.192 0.511 0.654 0.537 0.983l0.021 0.261-4.967 0.040-1.364-0.548c-1.486-0.597-1.658-0.616-1.853-0.205-0.101 0.214-0.015 0.549 0.162 0.626 0.046 0.020 0.678 0.281 1.404 0.579l1.319 0.542h11.3l0.114 0.165c0.121 0.174 0.063 0.395-0.122 0.467-0.053 0.021-2.116 0.36-4.584 0.753l-4.488 0.716-7.762-1.571-2.819 0.773c-1.55 0.425-2.91 0.808-3.020 0.852s-0.243 0.182-0.295 0.308c-0.081 0.199-0.074 0.255 0.058 0.434 0.083 0.113 0.234 0.216 0.335 0.228s1.442-0.326 2.978-0.753l2.794-0.775 7.738 1.564 4.673-0.744c5.215-0.83 5.16-0.816 5.46-1.444 0.345-0.722 0.099-1.488-0.59-1.835l-0.373-0.188 0.453-0.451c2.247-2.238 2.858-5.538 1.543-8.349-0.414-0.886-0.685-1.286-1.355-2-1.618-1.726-4.129-2.555-6.449-2.128zM20.362 3.964c4.249 1.368 5.791 6.449 3.028 9.976-0.442 0.565-1.209 1.203-1.861 1.55l-0.515 0.274-2.92-0.042-0.047-0.387c-0.095-0.785-0.581-1.52-1.251-1.89-0.492-0.271-1.12-0.364-2.468-0.365l-1.12-0.001-0.25-0.555c-0.388-0.862-0.532-1.568-0.527-2.585 0.005-1.042 0.142-1.665 0.572-2.604 0.806-1.76 2.384-3.054 4.259-3.491 0.705-0.164 2.423-0.098 3.099 0.119zM22.63 20.406c-1.27 0.207-2.353 0.816-3.001 1.685l-0.296 0.397-3.434 0.051-0.504 0.252c-0.816 0.407-1.419 1.279-1.419 2.049v0.265l-2.4 0.002c-2.476 0.002-2.907 0.043-3.283 0.314-0.435 0.314-0.635 1.039-0.436 1.575 0.112 0.3 0.506 0.696 0.784 0.786 0.128 0.042 2.306 0.408 4.841 0.813l4.609 0.738 7.725-1.564 2.827 0.783c3.037 0.842 3.113 0.852 3.306 0.444 0.117-0.247 0.010-0.543-0.236-0.654-0.089-0.040-1.448-0.427-3.020-0.861l-2.858-0.788-7.77 1.573-4.519-0.719c-4.86-0.773-4.932-0.791-4.687-1.165l0.109-0.167 11.472-0.077 1.247-0.522c0.686-0.287 1.311-0.586 1.389-0.663 0.286-0.283 0.083-0.845-0.305-0.845-0.098 0-0.729 0.224-1.403 0.498l-1.226 0.498h-5.195l0.053-0.249c0.094-0.441 0.332-0.818 0.654-1.034l0.314-0.211 1.933-0.038c1.063-0.021 1.977-0.067 2.029-0.101s0.167-0.204 0.254-0.377c0.204-0.406 0.77-0.961 1.243-1.22 0.641-0.351 1.247-0.469 2.187-0.425 1.106 0.052 2.098 0.284 3.515 0.822 1.389 0.528 2.1 0.678 3.494 0.741 1.113 0.050 1.215 0.024 1.351-0.338 0.093-0.249-0.056-0.534-0.33-0.631-0.125-0.044-0.541-0.080-0.925-0.080-0.884 0-1.861-0.172-2.682-0.472-1.661-0.607-2.134-0.757-2.873-0.908-0.78-0.159-2.086-0.252-2.532-0.179z"></path>
<path fill="#fff" style="fill: var(--color1, #fff)" d="M15.962 8.070c0.32-1.511 1.521-2.62 3.008-2.777 0.088-0.009 0.204-0.018 0.256-0.020l0.096-0.003v0.689l-0.136 0.013c-0.763 0.070-1.341 0.341-1.832 0.857-0.376 0.395-0.604 0.832-0.721 1.381-0.050 0.236-0.049 0.851 0.002 1.088 0.12 0.56 0.364 1.015 0.756 1.41 0.336 0.34 0.713 0.57 1.15 0.703 0.207 0.063 0.489 0.111 0.655 0.111l0.126 0v0.703l-0.238-0.014c-0.588-0.036-1.149-0.23-1.672-0.581-0.312-0.209-0.715-0.615-0.921-0.929-0.257-0.391-0.429-0.804-0.529-1.276-0.040-0.186-0.046-0.274-0.046-0.672-0.001-0.407 0.005-0.483 0.047-0.682z"></path>
<path fill="#fff" style="fill: var(--color1, #fff)" d="M17.927 7.227c0.353-0.335 0.794-0.524 1.295-0.558 0.050-0.003 0.122-0.004 0.161-0 0.281 0.022 0.361 0.034 0.516 0.080 0.819 0.24 1.407 0.974 1.482 1.847l0.014 0.158-0.695-0.011-0.013-0.146c-0.028-0.313-0.155-0.576-0.398-0.822-0.279-0.283-0.572-0.406-0.965-0.406-0.926 0-1.579 0.907-1.299 1.802 0.165 0.526 0.629 0.91 1.162 0.96l0.137 0.013v0.692l-0.168-0.012c-0.466-0.033-0.936-0.255-1.28-0.604-0.824-0.834-0.8-2.185 0.053-2.993z"></path>
<path fill="#fff" style="fill: var(--color1, #fff)" d="M15.584 11.797c-0.651-0.837-0.988-1.746-1.056-2.847l-0.012-0.199 0.696 0.011 0.013 0.265c0.025 0.496 0.169 1.050 0.399 1.533 0.478 1.005 1.335 1.774 2.375 2.131 0.393 0.135 0.617 0.178 1.188 0.227l0.136 0.012v0.694l-0.226-0.014c-1.216-0.075-2.303-0.562-3.143-1.406-0.134-0.134-0.3-0.318-0.369-0.407z"></path>
<path fill="#fff" style="fill: var(--color1, #fff)" d="M20.428 9.236c-0.002-0.068 0.017-0.136 0.041-0.152 0.058-0.038 2.649-0.030 2.649 0.009 0 0.016-0.237 0.254-0.527 0.528l-0.527 0.499h-2.092l-0.021 0.969-0.281 0.004v-1.277h2.255l0.222-0.196c0.122-0.108 0.222-0.21 0.222-0.227s-0.072-0.029-0.159-0.027c-0.088 0.002-0.524 0.002-0.969-0.001l-0.809-0.005-0.003-0.123z"></path>
<path fill="#fff" style="fill: var(--color1, #fff)" d="M20.457 11.113v-0.653h0.3v0.349l0.677-0.015c0.372-0.008 0.684-0.003 0.693 0.011s-0.221 0.25-0.51 0.524l-0.526 0.498h-1.12v1.374l0.485-0.443 0.002-0.589h0.3v0.712l-0.478 0.452c-0.263 0.249-0.507 0.475-0.543 0.504-0.062 0.049-0.066-0.010-0.066-1.131v-1.182h1.28l0.222-0.196c0.122-0.108 0.212-0.206 0.2-0.219s-0.223-0.017-0.469-0.010l-0.447 0.013z"></path>
</symbol>
<symbol id="icon-fund_feature1" viewBox="0 0 32 32">
<path fill="#fff" style="fill: var(--color1, #fff)" stroke-linejoin="miter" stroke-linecap="butt" stroke-miterlimit="4" stroke-width="0.7111" stroke="#000" d="M9.543 10.46v8.327h3.86l0.115 0.256c0.063 0.141 0.196 0.368 0.294 0.504l0.179 0.248-0.328 0.666c-0.18 0.366-0.316 0.678-0.3 0.692 0.053 0.050 1.535 0.78 1.583 0.78 0.027 0 0.193-0.291 0.37-0.648l0.322-0.648h0.712l0.322 0.648c0.177 0.356 0.35 0.648 0.384 0.648 0.058 0 1.534-0.721 1.597-0.78 0.015-0.014-0.12-0.326-0.301-0.692l-0.328-0.666 0.212-0.309c0.117-0.17 0.248-0.396 0.293-0.504l0.081-0.195h3.864v-16.653h-12.93v8.327zM20.626 10.46v6.476l-2.001-0-0.207-0.401c-0.234-0.452-0.714-0.931-1.146-1.14-0.84-0.407-1.693-0.405-2.536 0.007-0.399 0.195-1.005 0.81-1.192 1.21l-0.151 0.324h-2.003v-12.953h9.236v6.476zM13.238 6.759v0.925h5.542v-1.85h-5.541v0.925zM1.075 6.25c-0.207 0.497-0.519 1.49-0.625 1.989-0.164 0.774-0.15 1.976 0.030 2.608 0.146 0.513 0.455 1.171 0.716 1.524 0.508 0.686 1.462 1.457 2.359 1.906 0.352 0.176 0.385 0.209 0.386 0.392 0.001 0.19 0.125 1.187 0.219 1.766 0.043 0.266 0.041 0.27-0.109 0.233-0.481-0.121-1.39-0.169-2.010-0.106-0.625 0.064-1.705 0.261-1.768 0.324-0.059 0.059 0.235 1.578 0.416 2.146 0.686 2.158 2.041 3.399 4.112 3.766 0.22 0.039 0.792 0.070 1.271 0.068l0.871-0.003 0.504 0.577c0.277 0.318 0.67 0.723 0.874 0.9l0.37 0.323-0.545 0.284c-0.3 0.156-0.65 0.357-0.778 0.445-0.414 0.286-1.174 0.964-1.511 1.348l-0.328 0.374 0.482 0.496c2.521 2.595 5.145 2.952 7.752 1.056l0.496-0.361 1.746 0.96 0.756-0.409c0.416-0.225 0.809-0.441 0.874-0.481 0.102-0.062 0.188-0.022 0.616 0.287 0.626 0.452 1.461 0.87 2.098 1.048 0.636 0.179 1.697 0.191 2.34 0.027 0.578-0.147 1.565-0.636 2.091-1.036 0.473-0.36 1.547-1.367 1.637-1.535 0.046-0.087-0.056-0.222-0.546-0.718-0.692-0.701-1.224-1.101-2.001-1.504l-0.547-0.284 0.37-0.323c0.204-0.177 0.597-0.582 0.874-0.9l0.504-0.577 0.871 0.003c0.479 0.002 1.051-0.029 1.271-0.068 2.504-0.445 3.906-2.081 4.437-5.181 0.093-0.542 0.104-0.716 0.047-0.751-0.041-0.025-0.395-0.108-0.786-0.183-0.808-0.156-2.066-0.188-2.677-0.067-0.2 0.040-0.376 0.060-0.39 0.046s0.017-0.299 0.069-0.632c0.052-0.334 0.114-0.823 0.137-1.088l0.042-0.482 0.376-0.188c1.141-0.571 2.206-1.543 2.669-2.434 0.636-1.224 0.725-2.506 0.288-4.139-0.159-0.593-0.499-1.549-0.585-1.644-0.069-0.077-1.243 0.339-1.926 0.683-1.067 0.537-1.835 1.178-2.35 1.963-0.822 1.253-0.982 2.976-0.448 4.811 0.211 0.724 0.093 2.012-0.333 3.631-0.165 0.629-0.228 0.773-0.44 1.018-0.609 0.703-1.090 1.647-1.368 2.684-0.081 0.302-0.224 0.663-0.318 0.802-0.286 0.423-1.671 1.77-2.346 2.282-0.483 0.367-0.72 0.504-0.985 0.572-0.492 0.127-1.502 0.625-2.012 0.993-0.237 0.171-0.641 0.503-0.898 0.737-0.271 0.247-0.665 0.527-0.939 0.668l-0.472 0.243-0.474-0.244c-0.28-0.144-0.665-0.418-0.939-0.67-0.256-0.235-0.659-0.566-0.896-0.735-0.526-0.377-1.547-0.881-1.984-0.98-0.244-0.055-0.482-0.192-0.985-0.568-0.687-0.513-2.074-1.855-2.374-2.299-0.094-0.139-0.237-0.5-0.318-0.802-0.275-1.027-0.788-2.037-1.35-2.661-0.263-0.291-0.305-0.397-0.534-1.336-0.348-1.428-0.452-2.683-0.27-3.275 0.293-0.954 0.4-2.088 0.277-2.934-0.246-1.695-1.252-2.992-3.014-3.882-0.533-0.269-1.732-0.74-1.885-0.74-0.050 0-0.134 0.104-0.187 0.231zM2.93 8.768c0.774 0.548 1.229 1.202 1.383 1.989 0.080 0.408 0.051 1.404-0.047 1.666-0.054 0.143-0.056 0.142-0.523-0.17-0.886-0.594-1.381-1.3-1.53-2.182-0.069-0.413-0.053-1.045 0.040-1.505 0.047-0.233 0.071-0.226 0.678 0.203zM29.836 9.226c0.093 1.286-0.406 2.252-1.562 3.026-0.466 0.312-0.469 0.313-0.523 0.17-0.099-0.262-0.127-1.258-0.047-1.666 0.162-0.83 0.657-1.505 1.532-2.091l0.469-0.314 0.047 0.175c0.026 0.096 0.064 0.411 0.085 0.7zM13.238 10.46v0.925h5.542v-1.85h-5.541v0.925zM16.427 17.053c0.267 0.137 0.505 0.517 0.505 0.808 0 0.284-0.222 0.642-0.493 0.795-0.128 0.072-0.321 0.131-0.431 0.131-0.454 0-0.927-0.48-0.921-0.934 0.004-0.298 0.187-0.602 0.465-0.77 0.291-0.176 0.569-0.186 0.875-0.029zM3.243 18.418c0.975 0.122 1.65 0.466 2.146 1.094 0.283 0.357 0.661 1.069 0.741 1.394l0.043 0.176-0.485-0.042c-1.544-0.135-2.347-0.636-2.938-1.834-0.155-0.314-0.299-0.634-0.32-0.71-0.045-0.166 0.037-0.173 0.812-0.076zM29.586 18.494c-0.021 0.076-0.165 0.396-0.32 0.71-0.591 1.198-1.394 1.7-2.938 1.834l-0.485 0.042 0.043-0.176c0.076-0.312 0.459-1.030 0.742-1.392 0.576-0.735 1.475-1.114 2.73-1.151 0.247-0.007 0.263 0.002 0.228 0.131zM11.171 26.282c0.371 0.097 1.179 0.492 1.451 0.709 0.174 0.139 0.212 0.095-0.422 0.489-1.157 0.72-2.318 0.711-3.511-0.027-0.575-0.356-0.543-0.317-0.374-0.458 0.245-0.204 1.065-0.615 1.421-0.711 0.437-0.118 0.991-0.119 1.435-0.003zM22.254 26.282c0.371 0.097 1.179 0.492 1.451 0.709 0.174 0.139 0.212 0.095-0.422 0.489-1.14 0.709-2.326 0.709-3.466 0-0.634-0.395-0.596-0.35-0.422-0.489 0.26-0.208 1.076-0.612 1.425-0.706 0.437-0.118 0.991-0.119 1.435-0.003z"></path>
</symbol>
<symbol id="icon-discord-Traced" viewBox="0 0 32 32">
<path fill="#fff" style="fill: var(--color1, #fff)" d="M2.783 0.073c0.172-0.032 0.629-0.062 1.015-0.066l0.21-0.002c0.272-0.003 0.493 0.217 0.493 0.488 0 0.275-0.218 0.5-0.493 0.508l-0.311 0.010c-0.778 0.024-0.819 0.033-1.272 0.257-0.564 0.279-0.919 0.643-1.194 1.223-0.13 0.275-0.198 0.576-0.198 0.88v25.23c0 0.347 0.080 0.689 0.233 1 0.281 0.569 0.643 0.924 1.223 1.2 0.275 0.13 0.575 0.198 0.879 0.198h25.248c0.304 0 0.604-0.068 0.879-0.198 0.579-0.275 0.942-0.63 1.221-1.195 0.224-0.454 0.232-0.494 0.256-1.274l0.009-0.305c0.009-0.279 0.237-0.5 0.516-0.5 0.273 0 0.492 0.227 0.482 0.5l-0.014 0.36c-0.037 0.988-0.149 1.395-0.553 2.022-0.462 0.715-1.072 1.182-1.929 1.474-0.331 0.113-0.807 0.117-13.492 0.117s-13.16-0.004-13.492-0.117c-1.266-0.432-2.214-1.481-2.432-2.694-0.094-0.52-0.094-25.826 0-26.346 0.183-1.015 0.947-2.009 1.897-2.468 0.277-0.134 0.644-0.269 0.815-0.302zM5.5 0.5c0-0.276 0.224-0.5 0.5-0.5s0.5 0.225 0.5 0.5c0 0.276-0.224 0.5-0.5 0.5s-0.5-0.225-0.5-0.5zM7.499 0.5c0-0.276 0.224-0.5 0.5-0.5h10.147c7.588 0 10.742 0.020 10.978 0.070 1.385 0.292 2.248 1.372 2.691 3.371 0.131 0.591 0.132 0.665 0.152 11.84l0.019 10.744c0 0.277-0.224 0.501-0.5 0.501s-0.501-0.224-0.501-0.501l-0-10.337c-0-6.887-0.024-11.044-0.064-11.402-0.181-1.61-0.712-2.667-1.547-3.078-0.235-0.115-0.493-0.176-0.755-0.176l-20.621-0.031c-0.276-0-0.5-0.224-0.5-0.501zM12.871 5.549c0.189-0.011 0.675-0.026 1.080-0.032 0.706-0.011 0.743-0.005 0.89 0.142 0.182 0.182 0.201 0.463 0.044 0.654-0.072 0.088-0.31 0.187-0.703 0.291-0.326 0.087-0.861 0.266-1.189 0.397-0.655 0.263-1.306 0.595-1.060 0.539 1.747-0.391 2.594-0.498 3.935-0.495 1.154 0.002 2.123 0.105 3.494 0.371 0.427 0.083 0.786 0.142 0.797 0.131 0.029-0.029-0.881-0.448-1.386-0.638-0.24-0.090-0.69-0.231-0.999-0.314-0.367-0.098-0.6-0.196-0.672-0.283-0.157-0.191-0.138-0.472 0.044-0.654 0.14-0.14 0.202-0.154 0.703-0.153 2.353 0.003 5.724 0.528 6.803 1.061 0.616 0.304 1.169 0.86 1.483 1.491 0.468 0.941 1.37 4.961 1.82 8.114 0.235 1.644 0.411 3.235 0.364 3.284-0.030 0.031-0.909 0.115-0.945 0.090-0.010-0.007-0.059-0.403-0.109-0.881-0.289-2.788-0.784-5.568-1.498-8.423-0.384-1.535-0.439-1.689-0.75-2.114-0.48-0.655-1.15-0.929-3.045-1.247-1.078-0.181-1.181-0.159-0.678 0.14 0.544 0.324 1.268 0.877 1.773 1.352 0.355 0.334 0.423 0.432 0.423 0.603 0 0.291-0.18 0.49-0.443 0.489-0.117-0.001-0.62-0.144-1.118-0.319-1.617-0.568-3.333-0.932-5.106-1.081-1.863-0.157-4.405 0.242-6.605 1.038-1.212 0.438-1.258 0.449-1.455 0.339s-0.297-0.352-0.24-0.579c0.055-0.22 0.953-0.993 1.87-1.611 0.847-0.571 0.842-0.576-0.371-0.372-1.333 0.224-2.055 0.429-2.461 0.701-0.331 0.221-0.675 0.608-0.862 0.966-0.038 0.073-0.156 0.453-0.262 0.843s-0.199 0.716-0.207 0.724c-0.018 0.018-0.92-0.212-0.944-0.241-0.043-0.052 0.414-1.543 0.569-1.857 0.248-0.502 1.003-1.241 1.521-1.49 0.806-0.386 3.417-0.851 5.495-0.977zM4.913 11.353c0.060-0.257 0.112-0.467 0.114-0.466 0.556 0.142 0.926 0.244 0.941 0.26 0.036 0.036-0.193 0.933-0.239 0.937-0.131 0.011-0.861-0.158-0.891-0.207-0.019-0.032 0.014-0.268 0.075-0.525zM4.563 12.966c0-0.034 0.222-0.012 0.606 0.058 0.359 0.066 0.398 0.088 0.369 0.203-0.094 0.377-0.427 2.356-0.566 3.359-0.287 2.078-0.521 4.888-0.45 5.405 0.097 0.711 0.591 1.461 1.196 1.815 0.775 0.455 3.849 1.241 5.841 1.494 1.233 0.157 2.009 0.207 2.036 0.132 0.036-0.1 0.275-1.289 0.275-1.37-0-0.042-0.275-0.116-0.674-0.181-0.837-0.136-1.737-0.414-2.51-0.775-0.709-0.332-1.833-1.074-2.329-1.539-0.294-0.275-0.359-0.373-0.359-0.539 0-0.238 0.236-0.509 0.442-0.509 0.074 0 0.524 0.125 0.998 0.278 2.333 0.752 4.858 1.223 6.564 1.223 1.675 0 4.201-0.471 6.518-1.217 0.481-0.155 0.939-0.282 1.018-0.283 0.212-0.002 0.45 0.266 0.45 0.508 0 0.16-0.061 0.259-0.295 0.477-1.33 1.24-3.218 2.138-5.056 2.404-0.398 0.058-0.52 0.098-0.518 0.172 0.001 0.053 0.064 0.391 0.141 0.751l0.067 0.318c0.041 0.194 0.217 0.33 0.415 0.32 1.704-0.079 4.193-0.544 6.139-1.145 1.213-0.375 1.512-0.529 1.949-1.002 0.515-0.557 0.624-0.895 0.625-1.929l0-0.364c0-0.271 0.21-0.495 0.48-0.512 0.266-0.017 0.498 0.182 0.52 0.448l0.004 0.048c0.115 1.388-0.23 2.409-1.087 3.212-0.548 0.514-1.159 0.777-2.995 1.294-1.888 0.531-4.87 1.005-6.319 1.005-0.45 0-0.485-0.071-0.79-1.594-0.151-0.754-0.275-1.418-0.275-1.476s0.051-0.169 0.114-0.247c0.098-0.121 0.219-0.153 0.849-0.226 0.713-0.082 1.883-0.321 1.83-0.374-0.014-0.014-0.22 0.014-0.457 0.063-1.069 0.221-2.066 0.316-3.335 0.316s-2.267-0.094-3.335-0.316c-0.237-0.049-0.443-0.077-0.457-0.063-0.053 0.053 1.117 0.292 1.83 0.374 0.63 0.072 0.752 0.105 0.849 0.226 0.063 0.078 0.114 0.189 0.114 0.247s-0.124 0.723-0.275 1.476c-0.306 1.523-0.341 1.594-0.79 1.594-0.851 0-3.007-0.265-4.369-0.536-1.566-0.312-3.784-0.98-4.352-1.31-0.46-0.267-1.082-0.936-1.317-1.414-0.37-0.754-0.423-1.159-0.336-2.558 0.139-2.233 0.415-4.491 0.824-6.725 0.101-0.551 0.183-1.008 0.183-1.017zM10.254 13.612c-1.584 0.427-2.564 2.069-2.16 3.621 0.387 1.487 1.817 2.459 3.303 2.244 1.329-0.192 2.364-1.225 2.554-2.549 0.299-2.081-1.682-3.859-3.697-3.316zM20.248 13.612c-1.584 0.427-2.564 2.069-2.16 3.621 0.387 1.487 1.817 2.459 3.303 2.244 1.329-0.192 2.364-1.225 2.554-2.549 0.299-2.081-1.682-3.859-3.697-3.316zM11.815 14.697c0.432 0.204 0.702 0.461 0.934 0.892 0.194 0.361 0.213 0.442 0.214 0.928 0.001 0.493-0.015 0.561-0.222 0.938-0.961 1.749-3.567 1.194-3.728-0.794-0.073-0.901 0.473-1.722 1.36-2.046 0.372-0.136 1.063-0.097 1.442 0.082zM21.809 14.697c0.432 0.204 0.702 0.461 0.934 0.892 0.194 0.361 0.213 0.442 0.214 0.928 0.001 0.493-0.015 0.561-0.222 0.938-0.961 1.749-3.567 1.194-3.728-0.794-0.073-0.901 0.473-1.722 1.36-2.046 0.372-0.136 1.063-0.097 1.442 0.082z"></path>
</symbol>
<symbol id="icon-reddit-Traced" viewBox="0 0 32 32">
<path fill="#fff" style="fill: var(--color1, #fff)" d="M25.598 2.321c-0.579 0.174-0.902 0.375-1.346 0.839-0.989 1.034-1.203 2.438-0.568 3.735 0.21 0.429 0.75 1.023 1.149 1.265 0.529 0.32 0.967 0.439 1.608 0.439 0.917 0 1.58-0.287 2.229-0.967 1.201-1.258 1.184-3.194-0.039-4.472-0.224-0.234-0.55-0.501-0.725-0.592-0.706-0.369-1.589-0.463-2.309-0.247zM27.225 3.673c0.693 0.338 1.059 0.943 1.061 1.751 0.001 0.388-0.029 0.545-0.152 0.794-0.727 1.469-2.655 1.469-3.382 0-0.205-0.414-0.214-1.135-0.021-1.571 0.447-1.006 1.547-1.436 2.494-0.974zM21.351 4.075c-0.289 0.354-0.176 0.818 0.244 0.999 0.627 0.27 1.141-0.514 0.662-1.008-0.148-0.152-0.237-0.188-0.463-0.188-0.237 0-0.306 0.031-0.443 0.198zM19.094 4.245c-0.226 0.057-0.942 0.587-1.307 0.966-0.698 0.725-0.979 1.29-1.476 2.962-0.181 0.608-0.349 1.139-0.374 1.181-0.029 0.049-0.406 0.097-1.057 0.135-2.974 0.174-5.597 0.935-7.888 2.289l-0.469 0.277-0.545-0.276c-0.684-0.346-1.162-0.457-1.956-0.453-1.537 0.008-2.889 0.903-3.601 2.383-0.812 1.688-0.422 3.742 0.956 5.027 0.211 0.197 0.407 0.358 0.435 0.358s0.052 0.225 0.052 0.5c0.003 4.658 4.318 8.704 10.54 9.883 1.939 0.367 4.568 0.42 6.44 0.129 1.925-0.299 4.378-1.060 4.831-1.498 0.205-0.198 0.196-0.621-0.017-0.84-0.225-0.232-0.411-0.246-0.89-0.067-1.62 0.603-2.445 0.841-3.622 1.045-3.674 0.636-7.529 0.135-10.559-1.373-1.469-0.731-2.45-1.438-3.378-2.434-1.074-1.153-1.692-2.29-1.975-3.636-0.117-0.558-0.105-1.898 0.022-2.452 0.623-2.719 2.886-5.025 6.284-6.405 3.95-1.603 8.967-1.603 12.917 0 3.398 1.379 5.661 3.686 6.284 6.405 0.159 0.694 0.142 1.975-0.035 2.706-0.255 1.053-0.875 2.219-1.66 3.121-0.22 0.253-0.416 0.541-0.435 0.638-0.047 0.24 0.134 0.609 0.35 0.714 0.291 0.142 0.524 0.039 0.943-0.417 1.39-1.513 2.227-3.585 2.228-5.514 0-0.491 0.002-0.495 0.21-0.628 0.548-0.349 1.181-1.262 1.443-2.079 0.346-1.078 0.273-2.179-0.21-3.182-0.713-1.481-2.063-2.374-3.6-2.383-0.796-0.004-1.274 0.106-1.956 0.453l-0.545 0.277-0.407-0.246c-2.034-1.231-4.675-2.057-7.333-2.293-0.267-0.024-0.485-0.061-0.485-0.082 0-0.142 0.672-2.177 0.816-2.471 0.237-0.484 0.721-1.018 1.248-1.376 0.238-0.162 0.462-0.35 0.497-0.419 0.165-0.317-0.001-0.786-0.318-0.9-0.109-0.039-0.216-0.068-0.236-0.064s-0.094 0.022-0.163 0.039zM5.032 12.747l0.324 0.109-0.799 0.814c-1.168 1.19-1.797 2.144-2.22 3.365-0.111 0.322-0.223 0.584-0.249 0.584-0.081-0.001-0.406-0.462-0.567-0.805-0.519-1.106-0.245-2.564 0.639-3.399 0.396-0.374 0.975-0.685 1.436-0.771 0.405-0.076 1.043-0.030 1.436 0.102zM28.343 12.645c2.116 0.357 3.121 3.013 1.793 4.737-0.1 0.13-0.203 0.237-0.229 0.237s-0.137-0.262-0.249-0.584c-0.423-1.221-1.052-2.175-2.221-3.365l-0.799-0.815 0.324-0.101c0.606-0.188 0.816-0.205 1.381-0.109zM10.822 15.261c-0.492 0.137-0.815 0.329-1.177 0.702-0.929 0.958-1.034 2.408-0.254 3.5 0.953 1.335 2.844 1.465 3.949 0.271 0.589-0.636 0.849-1.451 0.723-2.259-0.25-1.602-1.751-2.627-3.24-2.214zM20.002 15.264c-1.273 0.353-2.107 1.686-1.891 3.025 0.235 1.462 1.615 2.49 2.989 2.228 1.436-0.274 2.396-1.637 2.166-3.072-0.255-1.588-1.764-2.597-3.264-2.181zM12.030 16.572c0.14 0.065 0.355 0.241 0.48 0.391 1.023 1.232-0.474 2.956-1.788 2.059-0.611-0.417-0.787-1.338-0.373-1.953 0.359-0.534 1.121-0.76 1.681-0.497zM21.294 16.614c0.446 0.229 0.77 0.739 0.77 1.211-0.001 0.764-0.66 1.463-1.379 1.463-0.292 0-0.707-0.19-0.95-0.434-0.667-0.671-0.508-1.777 0.32-2.223 0.434-0.234 0.807-0.239 1.239-0.017zM10.775 23.119c-0.332 0.343-0.266 0.726 0.187 1.081 0.73 0.571 2.044 1.16 3.166 1.419 0.558 0.129 0.821 0.15 1.869 0.15 1.345 0 2.013-0.108 3.005-0.485 0.906-0.345 2.067-1.015 2.311-1.335 0.175-0.23 0.161-0.545-0.037-0.787-0.248-0.305-0.56-0.277-1.12 0.097-1.268 0.849-2.646 1.267-4.164 1.265-1.522-0.002-2.89-0.419-4.154-1.265-0.523-0.35-0.822-0.389-1.064-0.14zM24.841 26.149c-0.234 0.241-0.269 0.449-0.124 0.739 0.158 0.316 0.536 0.416 0.85 0.224 0.552-0.336 0.303-1.182-0.348-1.182-0.105 0-0.244 0.080-0.378 0.219z"></path>
</symbol>
<symbol id="icon-Twitter" viewBox="0 0 32 32">
<path fill="#fff" style="fill: var(--color1, #fff)" d="M21.074 1.841c-1.483 0.184-3.027 1.024-4.115 2.238-0.572 0.638-0.865 1.092-1.244 1.928-0.479 1.055-0.656 1.844-0.699 3.109l-0.034 1.005-0.351-0.045c-0.36-0.046-1.683-0.307-2.355-0.464-0.604-0.142-0.901 0.053-0.92 0.605-0.014 0.407 0.225 0.589 1.055 0.804 0.978 0.254 2.252 0.452 3.009 0.469 0.653 0.015 0.655 0.014 0.813-0.184 0.144-0.181 0.155-0.236 0.12-0.611-0.095-1.020-0.111-1.866-0.042-2.346 0.162-1.129 0.69-2.319 1.409-3.171 1.229-1.457 3.111-2.233 4.831-1.992 1.285 0.18 2.218 0.638 3.187 1.565 0.241 0.23 0.502 0.452 0.579 0.493 0.198 0.103 0.811-0.032 1.893-0.418 0.483-0.172 0.878-0.294 0.878-0.271 0 0.107-0.775 0.943-1.128 1.217-0.65 0.505-0.745 0.606-0.786 0.843-0.045 0.258 0.092 0.605 0.282 0.715 0.186 0.108 0.597 0.082 1.366-0.087l0.705-0.155-0.267 0.298c-0.147 0.164-0.541 0.541-0.876 0.837s-0.638 0.596-0.673 0.667c-0.035 0.071-0.064 0.505-0.065 0.965-0.010 8.477-4.9 15.855-12.068 18.211-2.518 0.827-5.272 1.037-7.949 0.607-1.245-0.2-3.085-0.766-4.054-1.248l-0.38-0.189 0.376-0.048c2.088-0.266 4.196-1.094 5.884-2.313 0.984-0.711 1.097-0.833 1.097-1.186 0-0.221-0.039-0.326-0.177-0.475-0.148-0.16-0.247-0.199-0.611-0.235-1.094-0.109-2.231-0.545-2.997-1.147-0.493-0.388-1.084-1.053-1.425-1.605l-0.315-0.51 0.649-0.042c1.354-0.088 1.825-0.314 1.825-0.874 0-0.409-0.168-0.547-1.028-0.843-0.984-0.339-1.612-0.759-2.339-1.566-0.582-0.645-0.949-1.238-1.24-2.002-0.155-0.407-0.376-1.224-0.341-1.261 0.008-0.009 0.269 0.058 0.579 0.149s0.836 0.184 1.17 0.208l0.606 0.042 0.192-0.208c0.154-0.167 0.192-0.266 0.192-0.495 0-0.31-0.012-0.326-0.751-0.961-0.788-0.677-1.535-1.951-1.83-3.119-0.12-0.476-0.142-0.731-0.142-1.617 0.001-0.898 0.023-1.134 0.149-1.615l0.147-0.563 0.697 0.736c0.806 0.851 1.601 1.578 2.355 2.153 0.654 0.499 0.907 0.538 1.198 0.185 0.359-0.436 0.227-0.751-0.576-1.377-1.006-0.784-2.023-1.791-3.062-3.032-0.44-0.525-0.485-0.56-0.72-0.558-0.141 0.001-0.309 0.053-0.385 0.119-0.152 0.132-0.542 0.946-0.723 1.509-0.48 1.495-0.485 3.47-0.012 4.897 0.196 0.592 0.534 1.337 0.787 1.737 0.1 0.159 0.166 0.288 0.146 0.288s-0.147-0.061-0.282-0.136c-0.362-0.2-0.659-0.179-0.881 0.063-0.167 0.181-0.183 0.24-0.183 0.667 0 1.044 0.329 2.405 0.825 3.411 0.372 0.755 0.807 1.354 1.478 2.037 0.541 0.55 0.583 0.61 0.429 0.61-0.201 0-0.455 0.25-0.514 0.506-0.082 0.354 0.516 1.767 1.093 2.582 0.828 1.17 2.094 2.17 3.264 2.579 0.189 0.066 0.368 0.135 0.397 0.153 0.173 0.107-1.762 1.028-2.826 1.344-1.272 0.378-1.922 0.463-3.596 0.467-1.46 0.004-1.488 0.007-1.628 0.159-0.166 0.18-0.198 0.668-0.056 0.854 0.048 0.063 0.386 0.308 0.751 0.546 2.207 1.435 4.699 2.332 7.49 2.694 0.82 0.107 3.275 0.108 4.070 0.002 3.194-0.425 5.726-1.387 8.089-3.074 5.019-3.584 8.154-9.735 8.391-16.464l0.039-1.103 0.215-0.177c0.729-0.603 1.803-1.826 2.495-2.843 0.317-0.465 0.37-0.585 0.37-0.837 0-0.239-0.032-0.325-0.175-0.458-0.245-0.228-0.516-0.21-1.184 0.079-0.308 0.134-0.571 0.233-0.582 0.22s0.093-0.206 0.233-0.43c0.383-0.611 0.817-1.641 0.851-2.020 0.026-0.29 0.008-0.352-0.147-0.528-0.261-0.295-0.532-0.272-1.171 0.101-0.777 0.453-1.435 0.748-2.287 1.026l-0.769 0.251-0.295-0.269c-1.090-0.992-2.413-1.613-3.791-1.78-0.673-0.081-0.929-0.081-1.607 0.003zM9.007 8.466c-0.211 0.042-0.456 0.398-0.456 0.663 0 0.163 0.054 0.286 0.193 0.436 0.569 0.616 1.438-0.236 0.887-0.869-0.177-0.203-0.38-0.278-0.624-0.23zM22.822 18.388c-0.134 0.145-0.183 0.263-0.183 0.44 0 0.575 0.665 0.886 1.036 0.484 0.361-0.391 0.073-1.123-0.441-1.123-0.169 0-0.276 0.052-0.412 0.198zM21.606 20.283c-0.103 0.068-0.29 0.259-0.416 0.424-0.691 0.909-1.898 2.041-3.004 2.819-0.807 0.568-0.869 0.638-0.869 0.981 0 0.366 0.265 0.673 0.58 0.673 0.48 0 2.215-1.353 3.468-2.703 1.254-1.353 1.407-1.692 0.961-2.132-0.221-0.218-0.453-0.238-0.719-0.062z"></path>
</symbol>
<symbol id="icon-Telegram" viewBox="0 0 32 32">
<path fill="#fff" style="fill: var(--color1, #fff)" d="M29.992 1.343c-1.073 0.374-29.29 11.906-29.437 12.030-0.82 0.695-0.712 2.072 0.201 2.566 0.129 0.070 1.749 0.722 3.601 1.45s3.374 1.331 3.384 1.341c0.009 0.010 0.612 2.035 1.339 4.499s1.373 4.587 1.435 4.715c0.363 0.752 1.217 1.060 1.912 0.689 0.17-0.091 1.212-0.941 2.314-1.888s2.072-1.75 2.155-1.783c0.11-0.044 0.211-0.028 0.376 0.059 0.124 0.065 1.762 1.294 3.639 2.73s3.53 2.692 3.673 2.791c0.306 0.211 0.808 0.287 1.188 0.178 0.333-0.095 0.797-0.527 0.924-0.862 0.055-0.145 1.286-6.27 2.735-13.611 2.916-14.772 2.749-13.748 2.352-14.355-0.4-0.612-1.044-0.81-1.79-0.55zM30.729 2.767c0.022 0.257-5.153 26.474-5.251 26.598-0.041 0.052-0.095 0.094-0.12 0.094s-1.716-1.277-3.757-2.838c-4.024-3.077-4.046-3.091-4.731-3.017-0.177 0.019-0.447 0.098-0.6 0.175s-1.208 0.941-2.345 1.919c-1.137 0.979-2.081 1.779-2.098 1.778-0.135-0.003-0.345-0.643-1.558-4.753-0.755-2.557-1.406-4.725-1.446-4.818s-0.125-0.203-0.189-0.244c-0.063-0.042-1.717-0.704-3.675-1.472s-3.596-1.444-3.639-1.502c-0.064-0.086-0.061-0.124 0.018-0.207 0.115-0.121 29.145-11.945 29.281-11.926 0.055 0.007 0.101 0.094 0.111 0.21zM24.164 7.14c-0.636 0.345-13.345 8.645-13.548 8.848-0.347 0.347-0.555 0.815-0.591 1.329-0.027 0.396 0.030 0.649 0.742 3.296 0.825 3.066 0.868 3.176 1.311 3.369 0.251 0.11 0.694 0.051 0.925-0.122 0.302-0.226 0.382-0.513 0.582-2.070 0.245-1.907 0.29-2.068 0.701-2.518 0.18-0.197 2.732-2.709 5.671-5.583s5.37-5.299 5.402-5.389c0.294-0.816-0.468-1.555-1.196-1.16zM21.002 10.842c-0.103 0.105-1.836 1.799-3.851 3.766s-3.788 3.729-3.94 3.918c-0.426 0.528-0.614 1.033-0.742 1.99-0.060 0.455-0.125 0.827-0.144 0.827s-0.268-0.862-0.553-1.916c-0.554-2.049-0.567-2.165-0.283-2.446 0.133-0.132 9.584-6.313 9.669-6.325 0.017-0.002-0.054 0.082-0.157 0.186zM26.254 15.89c-0.205 0.181-0.333 0.567-0.333 0.999 0 0.536 0.676 0.843 1.031 0.469 0.302-0.318 0.382-1.102 0.143-1.395-0.214-0.262-0.591-0.295-0.841-0.073zM25.582 19.049c-0.195 0.209-0.218 0.303-0.933 3.778-0.403 1.96-0.733 3.677-0.733 3.816 0 0.558 0.653 0.856 1.023 0.467 0.090-0.094 0.176-0.221 0.193-0.28s0.36-1.714 0.763-3.677c0.807-3.928 0.81-3.955 0.446-4.189-0.298-0.191-0.523-0.166-0.757 0.085z"></path>
</symbol>
<symbol id="icon-Instagram" viewBox="0 0 32 32">
<path fill="#fff" style="fill: var(--color1, #fff)" d="M8.313 0.061c-3.126 0.349-5.905 2.308-7.341 5.175-0.46 0.919-0.785 2.049-0.905 3.146-0.090 0.829-0.090 14.397 0 15.226 0.479 4.404 3.919 7.845 8.321 8.324 0.829 0.090 14.393 0.090 15.222 0 2.145-0.233 4.020-1.122 5.568-2.64 1.57-1.539 2.515-3.49 2.754-5.684 0.090-0.829 0.090-14.397 0-15.226-0.233-2.146-1.122-4.021-2.639-5.569-1.539-1.57-3.489-2.516-5.682-2.755-0.73-0.079-14.584-0.077-15.298 0.003zM24.185 1.392c1.27 0.304 2.298 0.762 3.257 1.453 1.273 0.917 2.416 2.499 2.889 4.001 0.407 1.291 0.386 0.786 0.386 9.15 0 7.088-0.008 7.63-0.113 8.119-0.167 0.774-0.402 1.477-0.682 2.040-1.171 2.348-3.172 3.882-5.806 4.45-0.488 0.105-1.031 0.113-8.116 0.113s-7.628-0.008-8.116-0.113c-1.743-0.376-3.196-1.164-4.34-2.353-1.090-1.133-1.792-2.484-2.148-4.137-0.105-0.489-0.113-1.031-0.113-8.119s0.008-7.63 0.113-8.119c0.356-1.653 1.058-3.004 2.148-4.137 1.258-1.308 3.009-2.191 4.809-2.427 0.238-0.031 3.758-0.051 7.897-0.044 6.932 0.011 7.502 0.020 7.936 0.124zM8.302 2.837c-1.316 0.222-2.494 0.812-3.473 1.742-1.073 1.020-1.747 2.295-1.986 3.759-0.136 0.837-0.136 14.479 0 15.315 0.396 2.427 2.089 4.445 4.383 5.223 0.962 0.326 1.442 0.372 3.913 0.372l2.233 0 0.203-0.181c0.273-0.244 0.287-0.61 0.031-0.866l-0.172-0.172-4.966-0.070-0.562-0.172c-1.819-0.556-3.127-1.863-3.699-3.696l-0.176-0.563v-15.065l0.176-0.563c0.572-1.832 1.868-3.128 3.699-3.7l0.562-0.176h15.061l0.562 0.176c1.831 0.572 3.128 1.868 3.699 3.7l0.176 0.563v15.065l-0.176 0.563c-0.572 1.833-1.879 3.14-3.699 3.697l-0.562 0.172-2.344 0.020c-1.289 0.011-2.409 0.035-2.489 0.053s-0.214 0.106-0.297 0.196c-0.269 0.29-0.168 0.76 0.204 0.95 0.218 0.112 4.341 0.093 5.050-0.022 2.843-0.464 5.038-2.659 5.501-5.503 0.136-0.837 0.136-14.479 0-15.315-0.463-2.844-2.658-5.039-5.501-5.503-0.778-0.127-14.599-0.126-15.354 0.001zM23.456 5.544c-1.662 0.59-2.152 2.677-0.918 3.911 1.165 1.165 3.11 0.804 3.829-0.711 0.14-0.296 0.163-0.427 0.163-0.938 0-0.535-0.019-0.634-0.193-1-0.395-0.831-1.149-1.329-2.056-1.36-0.363-0.013-0.589 0.014-0.825 0.098zM24.642 6.767c0.997 0.427 0.825 1.91-0.247 2.131-0.686 0.141-1.441-0.614-1.3-1.301 0.063-0.304 0.316-0.65 0.576-0.787 0.276-0.146 0.688-0.164 0.971-0.043zM15.25 7.413c-1.23 0.097-3.234 0.764-3.438 1.145-0.142 0.265-0.093 0.572 0.12 0.763 0.251 0.225 0.402 0.219 1.024-0.036 1.227-0.504 1.811-0.624 3.043-0.629 0.912-0.003 1.555 0.088 2.243 0.318 2.562 0.856 4.42 2.938 4.985 5.585 0.155 0.726 0.155 2.146 0.001 2.868-0.631 2.96-2.838 5.169-5.791 5.799-0.729 0.156-2.145 0.156-2.875 0-2.646-0.564-4.728-2.423-5.583-4.986-0.231-0.691-0.321-1.331-0.317-2.243 0.005-1.286 0.179-2.030 0.794-3.397 0.183-0.407 0.211-0.523 0.164-0.685-0.079-0.275-0.249-0.423-0.532-0.46-0.34-0.045-0.505 0.105-0.824 0.748-1.626 3.282-0.952 7.28 1.665 9.885 3.383 3.366 8.758 3.366 12.141 0 3.387-3.37 3.387-8.81 0-12.18-1.824-1.815-4.235-2.696-6.82-2.493zM10.207 9.632c-0.076 0.036-0.183 0.162-0.239 0.28-0.239 0.504 0.214 1.010 0.747 0.834 0.63-0.208 0.509-1.197-0.145-1.185-0.124 0.002-0.288 0.034-0.363 0.071zM14.983 10.464c-1.73 0.328-3.244 1.482-4.017 3.062-0.436 0.89-0.548 1.397-0.548 2.469 0 0.737 0.025 1 0.136 1.406 0.427 1.566 1.542 2.925 2.977 3.628 0.889 0.436 1.397 0.549 2.468 0.549s1.58-0.113 2.468-0.549c1.435-0.704 2.55-2.062 2.977-3.628 0.111-0.407 0.136-0.669 0.136-1.406 0-1.072-0.113-1.579-0.548-2.469-0.703-1.436-2.086-2.569-3.628-2.972-0.662-0.173-1.77-0.214-2.423-0.090zM16.862 11.717c0.274 0.056 0.738 0.221 1.075 0.383 0.505 0.243 0.674 0.367 1.135 0.831 0.451 0.455 0.588 0.643 0.824 1.133 0.632 1.309 0.632 2.554 0 3.863-0.236 0.49-0.373 0.678-0.824 1.133-0.46 0.464-0.63 0.588-1.135 0.831-1.32 0.634-2.555 0.634-3.875 0-0.505-0.243-0.675-0.367-1.135-0.831-0.451-0.455-0.588-0.643-0.824-1.133-0.308-0.64-0.478-1.326-0.478-1.931s0.17-1.292 0.478-1.932c0.236-0.49 0.373-0.678 0.824-1.133 0.46-0.464 0.63-0.588 1.135-0.831 0.957-0.46 1.827-0.579 2.799-0.382zM15.781 28.054c-0.398 0.171-0.504 0.687-0.202 0.989 0.129 0.129 0.232 0.171 0.42 0.171 0.727 0 0.811-1.063 0.094-1.182-0.103-0.017-0.244-0.007-0.313 0.022z"></path>
</symbol>
<symbol id="icon-LinkedIn" viewBox="0 0 32 32">
<path fill="#fff" style="fill: var(--color1, #fff)" d="M1.265 0.119c-0.628 0.217-1.075 0.713-1.21 1.345-0.049 0.229-0.063 4.436-0.050 14.725l0.019 14.405 0.132 0.284c0.193 0.416 0.487 0.719 0.889 0.916l0.356 0.174 11.295 0.017c8.43 0.012 11.339-0.002 11.47-0.056 0.187-0.077 0.357-0.34 0.357-0.555 0-0.207-0.163-0.469-0.342-0.55-0.125-0.057-2.8-0.075-11.303-0.075-12.114 0-11.392 0.021-11.558-0.342-0.109-0.238-0.109-28.575 0-28.813 0.127-0.279 0.343-0.342 1.171-0.342s1.031-0.056 1.168-0.322c0.167-0.324 0.051-0.715-0.253-0.854-0.269-0.122-1.748-0.094-2.14 0.041zM5.318 0.090c-0.542 0.3-0.316 1.163 0.306 1.163 0.317 0 0.626-0.305 0.626-0.619 0-0.469-0.519-0.772-0.932-0.544zM7.822 0.090c-0.419 0.233-0.406 0.893 0.023 1.088 0.125 0.057 2.799 0.075 11.297 0.075s11.171 0.018 11.297 0.075c0.366 0.166 0.342-0.836 0.342 14.674s0.023 14.507-0.342 14.674c-0.098 0.045-0.466 0.075-0.915 0.075-0.827 0-1.043 0.063-1.171 0.342-0.099 0.216-0.094 0.376 0.016 0.59 0.147 0.284 0.362 0.333 1.36 0.308 0.831-0.020 0.922-0.034 1.251-0.196 0.403-0.198 0.697-0.5 0.889-0.916l0.132-0.284v-29.185l-0.175-0.355c-0.198-0.402-0.501-0.696-0.917-0.888l-0.285-0.132-11.326-0.014c-9.33-0.011-11.352 0.001-11.476 0.069zM7.017 4.531c-1.192 0.27-2.133 1.159-2.481 2.342-0.13 0.441-0.13 1.318 0 1.758 0.531 1.805 2.454 2.841 4.176 2.249 0.573-0.197 0.875-0.385 1.301-0.81 1.045-1.044 1.279-2.511 0.611-3.833-0.231-0.458-0.896-1.151-1.303-1.358-0.749-0.382-1.593-0.509-2.303-0.348zM8.61 5.943c0.424 0.208 0.749 0.539 0.972 0.993 0.199 0.406 0.196 1.223-0.006 1.638-0.226 0.464-0.539 0.78-0.994 1.004-0.801 0.394-1.686 0.242-2.322-0.4-0.384-0.387-0.535-0.74-0.562-1.313-0.027-0.57 0.077-0.937 0.38-1.332 0.613-0.801 1.62-1.035 2.533-0.589zM20.392 11.47c-0.888 0.199-1.556 0.475-2.205 0.914-0.198 0.133-0.373 0.243-0.391 0.243s-0.032-0.087-0.032-0.194c0-0.271-0.165-0.588-0.35-0.673-0.207-0.094-4.797-0.1-4.972-0.007-0.322 0.172-0.309-0.142-0.309 7.9v7.47l0.365 0.408 2.476 0.018c2.675 0.019 2.742 0.012 2.93-0.315 0.062-0.109 0.087-1.163 0.111-4.733l0.031-4.593 0.185-0.333c0.22-0.397 0.448-0.601 0.904-0.81 0.888-0.408 1.957-0.017 2.436 0.89l0.167 0.316 0.031 4.608 0.031 4.608 0.347 0.346 2.469 0.018c2.668 0.019 2.736 0.012 2.923-0.315 0.063-0.111 0.080-1.222 0.080-5.296 0-4.759-0.009-5.197-0.114-5.686-0.488-2.264-2.1-3.998-4.331-4.66-0.707-0.209-2.117-0.272-2.783-0.123zM4.984 11.872l-0.204 0.182v7.52c0 5.994 0.016 7.548 0.080 7.66 0.187 0.327 0.255 0.334 2.93 0.315l2.476-0.018 0.365-0.408v-7.47c0-8.042 0.012-7.728-0.309-7.9-0.077-0.041-1.027-0.064-2.627-0.064h-2.506l-0.204 0.182zM22.989 12.842c1.308 0.444 2.269 1.267 2.851 2.441 0.51 1.029 0.497 0.872 0.497 6.259v4.771h-3.316l-0.001-4.078c-0.001-4.477-0.005-4.532-0.378-5.231-0.364-0.681-1.082-1.28-1.811-1.508-0.556-0.174-1.396-0.173-1.904 0.003-1.010 0.35-1.718 1.060-2.053 2.060-0.135 0.404-0.138 0.482-0.16 4.582l-0.022 4.171h-3.309v-13.374h3.129v0.722c0 0.844 0.069 1.042 0.405 1.152 0.12 0.040 0.281 0.053 0.356 0.029s0.421-0.329 0.768-0.677c0.645-0.649 1.053-0.933 1.731-1.206 0.652-0.263 1.082-0.332 1.934-0.308 0.65 0.018 0.867 0.050 1.283 0.191zM9.379 19.626v6.687h-3.316v-13.374h3.316v6.687zM26.093 30.837c-0.542 0.3-0.316 1.163 0.306 1.163 0.317 0 0.626-0.305 0.626-0.619 0-0.469-0.519-0.772-0.932-0.544z"></path>
</symbol>
<symbol id="icon-Vector-1" viewBox="0 0 39 32">
<path fill="none" stroke="#fff" style="stroke: var(--color1, #fff)" stroke-linejoin="miter" stroke-linecap="butt" stroke-miterlimit="4" stroke-width="4.5714" d="M2.286 3.429l16.623 22.857 17.662-22.857"></path>
</symbol>
<symbol id="icon-right-arrow-1-Traced" viewBox="0 0 27 32">
<path fill="#fff" style="fill: var(--color1, #fff)" d="M11.234 3.385l0.088 1.223 10.432-1.076-21.6 25.742 1.892 1.587 21.6-25.742 0.752 10.461 2.439-0.255-0.527-7.337-0.527-7.337-14.636 1.511 0.088 1.223z"></path>
</symbol>
<symbol id="icon-Vector" viewBox="0 0 53 32">
<path fill="none" stroke="#fff" style="stroke: var(--color1, #fff)" stroke-linejoin="miter" stroke-linecap="butt" stroke-miterlimit="4" stroke-width="3.5556" d="M0 1.778h53.333M0 16h53.333M0 30.222h53.333"></path>
</symbol>
<symbol id="icon-letter-t-logo-260nw-1035037741-1-Traced" viewBox="0 0 35 32">
<path fill="#fff" style="fill: var(--color1, #fff)" d="M1.287 1.299l1.287 1.299h29.773l2.193-2.599h-34.54l1.287 1.299zM4.542 4.896l1.262 1.431 6.823 0.026 0.086 2.035 0.086 2.035 2.331-2.821c1.282-1.552 2.57-3.117 2.863-3.479l0.531-0.658h-15.245l1.263 1.431zM19.21 7.633c-2.027 2.472-1.891 1.613-1.888 11.928 0.001 5.162 0.099 9.525 0.217 9.695s1.034 0.858 2.036 1.527l1.821 1.217v-22.545l8.014-0 2.509-2.887h-11.835l-0.874 1.066zM14.759 9.905l-1.828 2.19 0.079 5.571 0.079 8.879 1.673 1.139c0.92 0.626 1.741 1.070 1.826 0.987s0.119-7.396 0.076-12.208l-0.077-8.747-1.828 2.19z"></path>
</symbol>
<symbol id="icon-gradient-left-arrow" viewBox="0 0 42 26">
<defs>
<linearGradient id="gradient-left-arrow" x1="100%" y1="0%" x2="0%" y2="0%">
  <stop offset="0%" stop-color="#54D6FF"/>
  <stop offset="50%" stop-color="#C275FF"/>
  <stop offset="100%" stop-color="#F36AFF"/>
</linearGradient>
</defs>
<polygon points="42,0 0,13 42,26" fill="url(#gradient-left-arrow)" />
</symbol>



</defs>
</svg>
