<svg width="1010" height="1500" viewBox="0 0 1010 1500" fill="none" xmlns="http://www.w3.org/2000/svg">
<g filter="url(#filter0_f_2_348)">
<path fill-rule="evenodd" clip-rule="evenodd" d="M777.005 811.779C722.177 816.329 1053.48 1021.11 1103.51 998.215C1165.94 969.649 1038.14 650.754 1077.33 594.374C1115.17 539.948 1079.31 463.953 1061.16 400.194C1044.95 343.239 1015.06 293.596 978.46 247.052C940.222 198.425 904.673 178.429 843.506 169.278C782.021 160.079 737.116 180.286 678.95 202.24C626.779 221.932 553.134 200.697 521.1 246.353C488.412 292.942 533.689 356.523 530.814 413.37C528.312 462.847 485.119 511.551 505.401 556.747C525.677 601.927 590.047 602.885 629.368 632.976C673.712 666.911 832.646 807.161 777.005 811.779Z" fill="url(#paint0_linear_2_348)"/>
</g>
<defs>
<filter id="filter0_f_2_348" x="0" y="-333" width="1621" height="1833" filterUnits="userSpaceOnUse" color-interpolation-filters="sRGB">
<feFlood flood-opacity="0" result="BackgroundImageFix"/>
<feBlend mode="normal" in="SourceGraphic" in2="BackgroundImageFix" result="shape"/>
<feGaussianBlur stdDeviation="250" result="effect1_foregroundBlur_2_348"/>
</filter>
<linearGradient id="paint0_linear_2_348" x1="602.021" y1="1000" x2="1189.92" y2="894.058" gradientUnits="userSpaceOnUse">
<stop stop-color="#86AFFE"/>
<stop offset="0.507812" stop-color="#A57AFF"/>
<stop offset="1" stop-color="#FB84FF"/>
</linearGradient>
</defs>
</svg>
